<svg width="21" height="21" viewBox="0 0 21 21" fill="none" xmlns="http://www.w3.org/2000/svg">
<g id="back_arrow">
<path id="Vector" d="M14.2666 2.72566C14.1684 2.62441 14.0516 2.54408 13.9231 2.48927C13.7946 2.43446 13.6569 2.40625 13.5177 2.40625C13.3786 2.40625 13.2409 2.43446 13.1123 2.48927C12.9838 2.54408 12.8671 2.62441 12.7689 2.72566L5.73714 9.95352C5.6587 10.034 5.59647 10.1296 5.554 10.2348C5.51154 10.34 5.48969 10.4528 5.48969 10.5667C5.48969 10.6806 5.51154 10.7934 5.554 10.8986C5.59647 11.0039 5.6587 11.0994 5.73714 11.1799L12.7689 18.4078C13.1835 18.8339 13.852 18.8339 14.2666 18.4078C14.6812 17.9816 14.6812 17.2944 14.2666 16.8682L8.14029 10.5624L14.2751 4.25647C14.6812 3.83898 14.6812 3.14316 14.2666 2.72566Z" fill="#F7EEE7" stroke="#F7EEE7" stroke-width="0.2"/>
</g>
</svg>
