<svg width="35" height="29" viewBox="0 0 35 29" fill="none" xmlns="http://www.w3.org/2000/svg">
    <path fill-rule="evenodd" clip-rule="evenodd" d="M11.5 1.25C11.7361 0.93525 12.1065 0.75 12.5 0.75H22.5C22.8935 0.75 23.2639 0.93525 23.5 1.25L26.875 5.75H31.25C32.2445 5.75 33.1985 6.1451 33.9018 6.84835C34.605 7.5516 35 8.50542 35 9.5V24.5C35 25.4945 34.605 26.4485 33.9018 27.1518C33.1985 27.855 32.2445 28.25 31.25 28.25H3.75C2.75542 28.25 1.80161 27.855 1.09835 27.1518C0.395088 26.4485 0 25.4945 0 24.5V9.5C0 8.50545 0.395088 7.5516 1.09835 6.84835C1.80161 6.1451 2.75542 5.75 3.75 5.75H8.125L11.5 1.25ZM23.6533 16.2783C23.6533 19.6767 20.8983 22.4315 17.5 22.4315C14.1016 22.4315 11.3467 19.6767 11.3467 16.2783C11.3467 12.8799 14.1016 10.125 17.5 10.125C20.8983 10.125 23.6533 12.8799 23.6533 16.2783Z" fill="#D9D9D9"/>
</svg>
