<svg width="30" height="30" viewBox="0 0 30 30" fill="none" xmlns="http://www.w3.org/2000/svg">
<g id="flash-off">
<path id="Icon" d="M10 10L5.11682 15.8598C4.68081 16.383 4.4628 16.6446 4.45947 16.8656C4.45658 17.0576 4.54216 17.2404 4.69157 17.3611C4.86343 17.5 5.20397 17.5 5.88504 17.5H15L13.75 27.5L20 20M19.5625 12.5H24.115C24.796 12.5 25.1366 12.5 25.3084 12.6389C25.4578 12.7596 25.5434 12.9424 25.5405 13.1344C25.5372 13.3554 25.3192 13.617 24.8832 14.1402L23.1878 16.1746M13.2159 6.14081L16.25 2.5L15.5003 8.49714M26.25 26.25L3.75 3.75" stroke="white" stroke-width="2" stroke-linecap="round" stroke-linejoin="round"/>
</g>
</svg>
