<svg width="24" height="24" viewBox="0 0 24 24" fill="none" xmlns="http://www.w3.org/2000/svg">
<g id="flashlight-sharp" clip-path="url(#clip0_2404_30)">
<path id="Vector" d="M15.4686 0.750122L13.468 2.75168L21.2483 10.532L23.2498 8.53137L15.4686 0.750122Z" fill="white"/>
<path id="Vector_2" d="M20.1191 11.4305L12.5624 3.87146L11.7022 7.87505L0.749878 18.8438L5.15613 23.2501L16.1357 12.2907L20.1191 11.4305ZM11.2597 14.0588C11.1375 14.2089 10.9718 14.3176 10.7854 14.3698C10.599 14.422 10.401 14.4152 10.2186 14.3503C10.0362 14.2855 9.87831 14.1658 9.76668 14.0076C9.65505 13.8494 9.59512 13.6606 9.59512 13.467C9.59512 13.2734 9.65505 13.0846 9.76668 12.9264C9.87831 12.7682 10.0362 12.6485 10.2186 12.5837C10.401 12.5188 10.599 12.512 10.7854 12.5642C10.9718 12.6164 11.1375 12.7251 11.2597 12.8752C11.3957 13.0425 11.4698 13.2516 11.4696 13.4672C11.4695 13.6828 11.395 13.8917 11.2588 14.0588H11.2597Z" fill="white"/>
</g>
<defs>
<clipPath id="clip0_2404_30">
<rect width="24" height="24" fill="white"/>
</clipPath>
</defs>
</svg>
