<svg width="20" height="25" viewBox="0 0 20 25" fill="none" xmlns="http://www.w3.org/2000/svg">
    <path fill-rule="evenodd" clip-rule="evenodd" d="M0.625 24.2188V3.125C0.625 1.39911 2.02411 0 3.75 0H16.25C17.9759 0 19.375 1.39911 19.375 3.125V24.2188C19.375 24.4945 19.2297 24.7498 18.9925 24.8905C18.7554 25.0313 18.4617 25.0366 18.2196 24.9046L10 20.4212L1.78035 24.9046C1.53829 25.0366 1.24455 25.0313 1.00745 24.8905C0.770348 24.7498 0.625 24.4945 0.625 24.2188ZM10.249 6.40477C10.1471 6.19841 9.85287 6.19841 9.75102 6.40477L8.75902 8.41479C8.71858 8.49674 8.6404 8.55354 8.54997 8.56668L6.33178 8.889C6.10404 8.92209 6.01311 9.20195 6.1779 9.36258L7.783 10.9272C7.84844 10.991 7.8783 11.0829 7.86285 11.1729L7.48394 13.3821C7.44503 13.609 7.6831 13.7819 7.88679 13.6748L9.8708 12.6318C9.95168 12.5893 10.0483 12.5893 10.1292 12.6318L12.1132 13.6748C12.3169 13.7819 12.555 13.609 12.5161 13.3821L12.1372 11.1729C12.1217 11.0829 12.1516 10.991 12.217 10.9272L13.8221 9.36258C13.9869 9.20195 13.896 8.92209 13.6682 8.889L11.45 8.56668C11.3596 8.55354 11.2814 8.49674 11.241 8.41479L10.249 6.40477Z" fill="#D9D9D9"/>
</svg>
