<?xml version="1.0" standalone="yes"?>
<!--
    F7EEE7 mask
    5E926F leaf
    7C3F3E leaf veins
    010101 eyes
-->
<svg xmlns="http://www.w3.org/2000/svg" width="1080" height="1080">
    <path style="fill:#5E926F; stroke:none;" d="M338 0C338 53.9695 340.402 108.042 338.039 162C337.69 169.973 338.503 178.024 337.946 185.985C337.748 188.817 336.465 191.302 336.129 194.089C335.576 198.679 336.41 203.37 335.871 207.961C334.889 216.324 333.136 224.729 332.129 233.089C331.536 238.008 332.449 243.04 331.871 247.961C331.005 255.339 329.018 262.714 328.129 270.089C327.218 277.641 327.757 285.42 326.871 292.961C325.378 305.682 321.771 318.612 319.255 331.169C314.219 356.295 309.754 381.299 303.205 406.155C301.294 413.41 300.268 428.098 291.826 430.525C289.373 431.231 286.764 430.853 284.285 431.455C281.076 432.235 276.576 434.77 273.235 433.902C265.102 431.789 258.506 421.321 252.715 415.887C234.905 399.177 218.144 380.494 203.179 361.235C196.552 352.705 190.534 343.781 184.258 334.997C181.629 331.318 178.673 327.114 173.594 329.984C167.37 333.5 164.293 338.395 159.424 343.279C145.419 357.326 135.08 371.489 126.585 389.389C123.122 396.686 115.988 408.006 121.279 416.235C123.204 419.231 126.476 419.853 129.576 421.014C135.895 423.38 142.434 425.212 148.714 427.625C167.282 434.761 185.889 441.212 204.715 447.671C213.455 450.67 222.862 455.79 232 457L232 460C219.431 460 206.551 460.823 194.015 459.946C190.551 459.704 187.483 458.149 183.985 458.018C172.06 457.574 159.897 458.263 148.039 456.871C134.617 455.295 121.645 451 108 451C108 470.862 106.289 491.631 109.741 511.089C111.124 518.888 111.656 525.474 115.451 532.664C118.714 538.846 120.933 550.748 129.093 552.542C137.76 554.446 147.675 545.375 155.17 542.299C181.36 531.553 205.923 517.18 232.081 506.331C238.007 503.873 243.638 500.826 249.573 498.38C251.905 497.418 255.158 495.39 257.765 496.102C260.492 496.846 263.273 500.013 265.113 502.025C266.423 503.457 268.398 505.294 268.894 507.235C269.589 509.958 266.84 512.6 266.249 515.174C264.013 524.921 260.608 533.775 257.402 543.272C251.763 559.975 248.664 577.769 244.546 594.83C242.267 604.268 239.008 613.625 237.259 623.17C235.461 632.982 235.463 643.109 233.741 652.911C232.794 658.297 230.783 663.659 230.129 669.089C229.496 674.337 230.487 679.711 229.871 684.961C227.191 707.792 227.191 731.208 229.871 754.039C231.504 767.946 232.062 782.062 235.22 795.83C243.949 833.892 261.156 871.946 287.692 900.964C299.965 914.384 314.373 926.211 329.668 936.041C354.137 951.766 380.741 962.253 408.83 969.452C420.342 972.402 431.405 976.613 443.17 978.741C456.824 981.21 471.234 980.517 484.961 982.129C487.742 982.455 490.224 983.745 493.039 983.946C503.041 984.66 512.324 983.27 522.039 982.129C531.009 981.076 540.97 981.686 549.996 982.018C560.176 982.393 570.351 985.72 580.829 983.74C587.214 982.533 592.245 977.839 598.093 975.701C603.879 973.586 610.963 973.971 617 972.594C622.084 971.435 627.803 970.717 633 970.17C635.629 969.893 639.069 970.384 641.066 968.258C643.24 965.942 643.37 961.882 644.336 959C645.259 956.245 647.067 953.854 647.698 951C648.927 945.435 649.082 939.632 650.429 934C651.311 930.313 653.83 927.406 654.698 923.83C655.384 921 654.763 918.019 655.456 915.17C656.237 911.957 658.072 909.077 658.755 905.83C662.978 885.772 666 864.47 666 844C666 838.759 665.517 833.249 666.129 828.039C666.725 822.965 669.083 818.094 669.791 813C671.733 799.021 671.722 780.512 665 768C672.933 766.807 679.729 763.355 688 763C681.039 760.08 673.117 764.388 666 764.91C648.078 766.224 628.965 767.148 611 765.911C582.078 763.919 554.245 758.398 525.83 753.259C522.578 752.671 519.239 753.3 516 752.53C502.709 749.371 490.698 744.452 477.996 739.799C473.018 737.976 467.034 737.352 462.325 735.147C454.744 731.598 447.466 727.2 439.961 723.328C417.439 711.707 392.776 699.891 378.129 677.961C376.31 675.238 375.415 672.055 374.306 669C362.836 637.422 401.728 617.395 426.039 610.539C430.938 609.157 436.017 609.311 441 608.571C447.084 607.668 452.81 605.514 459 605.089C483.234 603.428 507.766 606.57 532 604.911C539.371 604.406 546.635 602.594 554 602.089C573.786 600.733 593.24 600.206 612.911 596.911C624.816 594.916 637.145 592.875 649 590.486C654.313 589.416 659.611 587.35 665 587C659.037 584.568 651.534 590.777 646.263 587.929C642.752 586.032 641.24 580.508 640.12 577C637.001 567.226 631.448 557.282 631 547L628 547C627.562 542.169 625.12 538.547 623.724 533.996C621.606 527.095 619.873 519.662 617.124 513C614.833 507.446 611.306 502.504 609.035 496.996C603.998 484.784 600.672 471.729 594.287 460C590.893 453.766 588.859 446.136 585.041 440.259C580.755 433.664 575.255 429.573 575 421C568.769 417.406 567.514 408.429 564.689 402.286C563.21 399.069 560.93 396.305 559.609 393C557.772 388.406 558.301 382.742 553 381C552.485 373.994 546.283 367.918 542.748 362C538.214 354.408 534.875 345.017 529.702 338C527.187 334.588 524.346 330.628 521.181 327.799C518.74 325.617 515.683 324.38 513.494 321.886C508.466 316.156 506.808 309.401 502.752 303.259C499.257 297.968 493.766 294.131 490.272 288.91C482.628 277.485 477.059 264.46 469.292 253.089C467.034 249.784 463.773 247.267 461.434 243.996C458.729 240.213 456.937 236.121 453.825 232.594C447.47 225.391 439.199 219.552 433.312 211.961C429.049 206.463 425.398 198.146 418 197C417.518 194.636 417.364 194.482 415 194C414.691 191.553 414.195 190.166 413 188L416 188C413.68 184.074 410.3 180.863 414 177C412.752 176.315 412.452 176.251 411 176C411.562 174.2 411.824 172.878 412 171L423 171C420.761 180.539 427.945 181.273 433.147 187.615C436.463 191.659 437.894 196.962 440.799 201.246C445.275 207.845 451.411 212.691 456.696 218.459C458.637 220.578 459.582 223.327 461.409 225.521C465.651 230.614 471.817 234.714 476.575 239.431C481.19 244.005 484.296 249.813 488.707 254.545C491.981 258.057 495.506 262.008 499.174 265.097C501.918 267.408 505.244 268.925 507.58 271.705C510.076 274.675 510.819 278.256 512.803 281.447C515.112 285.16 519.625 287.301 522.454 290.594C524.671 293.174 525.168 296.688 527.406 299.29C534.745 307.822 540.472 316.849 547.129 325.831C551.437 331.644 556.883 335.31 558 343C567.464 348.101 574.019 362.74 579.71 371.576C582.267 375.545 585.702 378.364 587 383C592.51 385.627 597.435 391.308 599.674 397.004C600.997 400.371 601.303 403.88 603.263 407C607.571 413.855 614.792 418.566 616 427L619 426C620.255 429.331 622.804 431.614 624 435C629.14 436.618 629.536 441.154 631.37 445.7C633.96 452.123 637.89 458.734 641.044 464.961C644.364 471.514 649.098 477.338 652.28 484.015C655.403 490.568 657.159 497.992 660.166 504.714C664.726 514.909 670.056 524.607 674.219 535C677.609 543.462 682.896 551.649 683 561L686 561C686 561.693 685.586 564.503 686 565L688 566C689.224 569.671 691.01 574.01 694 577L693 578C706.799 575.427 719.685 569.15 733 564.731C749.705 559.186 765.565 555.49 783 553.83C795.569 552.634 812.338 551.153 823.911 557.378C830.331 560.832 833.047 567.479 835.741 573.83C843.223 591.474 843.8 612.378 840.004 631C836.363 648.86 830.904 666.273 821.384 681.961C816.382 690.204 809.331 697.396 802.846 704.455C790.558 717.831 775.806 731.023 759.83 739.93C754.75 742.762 749.409 743.523 744 745.29C732.615 749.01 721.38 753.276 710 757C713.16 760.16 724.986 753.784 729 752C729.81 751.64 731.134 752.216 732 752C734.474 751.381 738.063 749.449 740 753C740.646 754.185 740 757.614 740 759C740 764.118 741 767.953 741 773C741 774.447 740.231 778.846 741 780C741.288 780.432 743.585 780.756 744 782C744.708 784.125 744 787.74 744 790C744 792.486 744.648 793.891 745 796C745.744 800.466 743.905 805.618 745 810C747.14 818.558 743.796 829.185 746 838C747.945 845.78 747 855.515 747 864C747 872.485 747.945 882.22 746 890C744.333 896.668 746.701 904.194 745 911C744.06 914.761 743 917.57 743 922C743 925.8 742.846 930.923 741 934L740 933C740.732 936.433 744.478 938.224 748 937.611C753.429 936.666 760.204 931.944 764.861 929C772.558 924.134 781.727 920.925 789.583 916.389C792.433 914.743 794.723 911.999 797.417 910.111C802.662 906.436 808.486 903.276 813.528 899.306C816.744 896.772 821.089 894.08 823.972 891.278C826.891 888.441 827.679 885.727 832 885C837.021 875.615 849.156 870.091 855.447 861.475C870.207 841.263 884.168 821.139 893.29 797.565C896.519 789.222 897.38 780.686 899.456 772.17C900.238 768.963 902.143 766.09 902.741 762.83C903.667 757.78 903 752.122 903 747L903 717C903 706.249 904.157 694.762 902.871 684.089C901.796 675.165 899.175 666.688 897.22 657.911C894.057 643.712 890.983 629.236 886.3 615.428C881.07 600.005 872.757 585.714 866.749 570.7C865.678 568.022 865.563 565.099 864.326 562.464C857.115 547.101 847.475 532.677 838.853 518.185C824.413 493.914 809.748 469.56 793.38 446.503C774.036 419.253 752.486 393.785 731.428 367.765C712.111 343.896 690.82 322.112 670.336 299.395C668.616 297.488 667.864 294.984 666.137 293.093C657.626 283.78 647.653 275.761 639.09 266.512C630.132 256.837 622.414 246.106 612.232 237.576C608.753 234.661 606.66 230.785 602 230C600.098 223.103 591.934 219.939 587.438 214.765C577.291 203.085 565.606 192.766 554.039 182.627C547.539 176.929 542.21 170.094 535.091 165.199C528.601 160.737 524.188 151.193 516 150L516 146C510.197 144.062 507.872 139.384 503.395 135.684C491.978 126.246 480.616 116.265 469.907 105.789C467.826 103.753 465.012 102.878 462.9 100.882C438.929 78.2215 412.804 58.3356 388.039 36.6273C379.513 29.1532 370.378 22.1462 362.039 14.6027C354.563 7.83899 348.66 0.00817871 338 0z"/>
    <path style="fill:#F7EEE7; stroke:none;" d="M338.333 35.6666C338.278 35.7224 338.223 36.7776 338.667 36.3334C338.722 36.2781 338.778 35.2219 338.333 35.6666M516 148L516 150L518 150L518 148L516 148M338 155L338 158C338.696 156.446 338.696 156.554 338 155M534.667 165.333C534.222 165.778 535.278 165.722 535.333 165.667C535.778 165.222 534.722 165.278 534.667 165.333z"/>
    <path style="fill:#2C6E49; stroke:none;" d="M412 171C411.765 173.975 410.601 175.588 414 176C409.833 180.434 412.668 183.832 416 188L413 188C413.895 190.042 414.536 191.828 415 194C417.124 194.899 417.101 194.876 418 197C426.806 199.451 433.036 212.537 439.424 218.884C444.764 224.189 450.642 229.26 455.313 235.17C457.977 238.54 459.524 242.585 462.174 245.961C464.391 248.783 467.298 251.043 469.292 254.039C476.9 265.472 482.457 278.571 490.272 289.826C493.432 294.376 498.041 298.105 501.537 302.455C507.871 310.336 508.409 321.798 519 326C517.691 315.323 508.733 309.799 503.866 300.829C491.71 278.43 475.97 258.81 460.37 238.83C455.898 233.103 452.322 226.647 447.775 220.989C439.538 210.737 423.72 201.534 421 188C432.754 194.581 440.017 206.319 449.054 216C455.043 222.416 463.239 228.987 467 237C472.488 237.886 474.106 242.109 477.514 246C484.261 253.703 494.384 260.868 499 270L503 270C506.616 282.74 518.919 293.624 527.162 303.437C530.854 307.832 533.076 312.328 539 314C540.317 325.911 552.449 331.909 557 342C558.769 336.414 552.825 331.227 549.311 327.536C544.345 322.32 541.367 315.885 537.37 310.039C534.471 305.799 530.627 302.475 527.406 298.545C525.248 295.911 524.715 292.4 522.454 289.862C519.739 286.813 515.66 284.769 513.296 281.447C510.948 278.148 510.388 274.118 507.58 270.978C502.276 265.045 495.062 260.363 489.441 254.545C485.197 250.153 482.195 244.641 477.999 240.174C473.289 235.16 467.687 231.09 462.846 226.292C460.519 223.984 459.488 220.91 457.391 218.459C454.001 214.495 449.944 211.259 446.585 207.169C441.346 200.79 438.345 193.025 433.147 186.808C428.091 180.762 421.414 180.118 423 171L412 171z"/>
    <path style="fill:#F7EEE7; stroke:none;" d="M336 188L336 191L338 191L338 188L336 188z"/>
    <path style="fill:#2C6E49; stroke:none;" d="M421 188C421.816 195.332 427.45 201.087 432.59 206.001C438.945 212.076 445.517 218.235 450.451 225.576C458.445 237.471 468.379 247.748 476.691 259.143C486.836 273.05 495.269 288.109 504.375 302.561C507.648 307.756 512.567 311.92 515.737 317.054C517.785 320.372 518.457 324.349 520.681 327.576C531.878 343.821 550.035 360.624 553 381C560.829 385.276 556.728 399.238 567 401C569.856 413.149 577.042 424.466 583.669 434.957C585.331 437.588 588.098 439.453 589.494 442.209C592.118 447.393 592.731 453.653 595.093 459C596.644 462.51 599.05 465.524 600.646 469C603.583 475.399 605.063 482.481 607.76 489C611.243 497.419 615.362 505.402 618.53 514C620.094 518.245 621.291 522.878 623.133 526.985C626.317 534.087 629.909 538.774 630 547L634 547C634.12 561.489 639.204 574.594 644 588C655.116 586.595 665.319 584.324 676.17 581.441C679.863 580.459 686.692 579.962 688.36 575.701C689.968 571.594 686.224 565.371 686 561L683 561C682.968 551.617 678.286 543.422 674.619 535C671.094 526.903 667.829 518.846 663.71 511.015C661.226 506.292 659.792 500.581 656.857 496.184C653.525 491.195 649.227 487.433 646.249 482C637.54 466.109 629.698 449.707 620.742 434.054C616.784 427.138 612.708 419.742 608.352 413C605.716 408.92 602.551 405.676 601 401C594.939 399.217 594.202 394.163 591.167 389.325C589.029 385.915 586.356 383.025 584.27 379.513C579.459 371.413 573.144 364.749 567.796 357C563.821 351.241 560.871 344.988 556.445 339.475C550.258 331.767 541.001 324.088 539 314C533.433 311.401 530.973 307.142 527.162 302.705C518.48 292.597 508.663 282.253 503 270L499 270C496.164 260.691 483.879 252.496 477.514 245.196C474.04 241.212 472.721 237.451 467 237C465.24 230.777 458.505 224.588 453.995 220C443.897 209.726 434.679 193.505 421 188z"/>
    <path style="fill:#F7EEE7; stroke:none;" d="M334 210L334 212L336 212L336 210L334 210M595 221L595 223L597 223L597 221L595 221M602 228L602 230L604 230L604 228L602 228M330 250L330 252L332 252L332 250L330 250M631 258L631 260L633 260L633 258L631 258M633.667 260.333C633.222 260.778 634.278 260.722 634.333 260.667C634.778 260.222 633.722 260.278 633.667 260.333M635 261L635 263L637 263L637 261L635 261M637.333 263.667C637.278 263.722 637.222 264.778 637.667 264.333C637.722 264.278 637.778 263.222 637.333 263.667M325 294L325 297L327 297L327 294L325 294M668.333 296.667C668.278 296.722 668.222 297.778 668.667 297.333C668.722 297.278 668.778 296.222 668.333 296.667M699.333 331.667C699.278 331.722 699.222 332.778 699.667 332.333C699.722 332.278 699.778 331.222 699.333 331.667z"/>
    <path style="fill:#2C6E49; stroke:none;" d="M168.667 333.333C168.222 333.778 169.278 333.722 169.333 333.667C169.778 333.222 168.722 333.278 168.667 333.333z"/>
    <path style="fill:#F7EEE7; stroke:none;" d="M317 336L317 338L319 338L319 336L317 336M162 338L162 340L164 340L164 338L162 338z"/>
    <path style="fill:#2C6E49; stroke:none;" d="M560 343C561.837 350.084 567.111 358.653 573 363C571.353 355.449 565.45 348.36 560 343M534 346C536.118 353.665 543.01 367.976 550 372C547.035 362.601 541.741 352.327 534 346M573 363C574.103 366.19 575.883 368.387 578 371C578.762 367.211 575.893 365.105 573 363z"/>
    <path style="fill:#F7EEE7; stroke:none;" d="M728.667 364.333C728.222 364.778 729.278 364.722 729.333 364.667C729.778 364.222 728.722 364.278 728.667 364.333M310 373L310 375L312 375L312 373L310 373z"/>
    <path style="fill:#2C6E49; stroke:none;" d="M581 374C582.741 380.34 587.908 384.727 591.167 390.184C594.067 395.04 594.683 399.978 601 401C599.712 393.755 594.373 385.125 587 383C586.34 378.719 584.464 376.521 581 374z"/>
    <path style="fill:#F7EEE7; stroke:none;" d="M232.667 395.333C232.222 395.778 233.278 395.722 233.333 395.667C233.778 395.222 232.722 395.278 232.667 395.333M234.333 396.667C234.278 396.722 234.222 397.778 234.667 397.333C234.722 397.278 234.778 396.222 234.333 396.667M235 398L235 400L237 400L237 398L235 398z"/>
    <path style="fill:#2C6E49; stroke:none;" d="M565 401C565.549 407.103 568.669 418.8 575 421C575.102 430.185 580.663 433.978 585.041 441.129C589.153 447.847 592.566 456.756 595.757 464C597.937 468.949 599.615 476.685 604 480C602.908 471.054 597.871 465.051 594.634 457C592.622 451.995 592.174 444.973 589.134 440.546C585.347 435.03 580.453 430.174 577.532 423.94C575.435 419.463 572.293 415.476 570.412 410.982C568.811 407.156 568.839 403.218 565 401z"/>
    <path style="fill:#F7EEE7; stroke:none;" d="M303 402L303 404L305 404L305 402L303 402M120 416L120 418L122 418L122 416L120 416z"/>
    <path style="fill:#2C6E49; stroke:none;" d="M610 416C612.473 422.755 616.65 427.994 620.208 434.054C623.451 439.576 625.574 445.349 628.386 451C631.659 457.578 636.198 463.507 639.641 470C643.867 477.968 647.213 488.87 655 494C652.866 482.68 646.93 474.773 641.529 464.961C638.476 459.417 636.363 453.544 633.039 448.116C630.087 443.294 630.484 436.122 624 435C623.216 431.311 620.806 429.206 619 426C617.203 426 617.479 426.014 616 427C615.665 422.35 614.104 418.419 610 416z"/>
    <path style="fill:#F7EEE7; stroke:none;" d="M266 429L266 431L268 431L268 429L266 429M783.333 433.667C783.278 433.722 783.222 434.778 783.667 434.333C783.722 434.278 783.778 433.222 783.333 433.667M175.667 437.333C175.222 437.778 176.278 437.722 176.333 437.667C176.778 437.222 175.722 437.278 175.667 437.333M131 453L131 455L133 455L133 453L131 453M189 458L189 460L192 460L192 458L189 458M801 458L801 460L803 460L803 458L801 458z"/>
    <path style="fill:#2C6E49; stroke:none;" d="M604 480C604.041 483.535 603.911 485.998 607 488C606.535 484.903 605.874 482.516 604 480M607 488C607.777 497.762 613.368 505.148 617 514C619.47 506.881 611.228 493.621 607 488z"/>
    <path style="fill:#2C6E49; stroke:none;" d="M268 506L268 508L270 508L270 506L268 506z"/>
    <path style="fill:#2C6E49; stroke:none;" d="M618 514C619.472 525.636 626.221 535.637 628 547L630 547C629.97 538.326 626.468 533.53 623.133 525.996C621.293 521.841 620.926 517.625 618 514z"/>
    <path style="fill:#F7EEE7; stroke:none;" d="M265.333 519.667C265.278 519.722 265.222 520.778 265.667 520.333C265.722 520.278 265.778 519.222 265.333 519.667z"/>
    <path style="fill:#2C6E49; stroke:none;" d="M839 519L839 521L841 521L841 519L839 519z"/>
    <path style="fill:#F7EEE7; stroke:none;" d="M191 524L191 526L193 526L193 524L191 524M115 533L115 535L117 535L117 533L115 533M850 537L850 539L852 539L852 537L850 537M852.667 541.333C852.222 541.778 853.278 541.722 853.333 541.667C853.778 541.222 852.722 541.278 852.667 541.333z"/>
    <path style="fill:#2C6E49; stroke:none;" d="M120 544L120 546L122 546L122 544L120 544M854 544L854 546L856 546L856 544L854 544z"/>
    <path style="fill:#2C6E49; stroke:none;" d="M631 547C631.1 551.804 632.363 556.271 633 561L635 561L634 547L631 547z"/>
    <path style="fill:#2C6E49; stroke:none;" d="M124 550L124 552L126 552L126 550L124 550z"/>
    <path style="fill:#F7EEE7; stroke:none;" d="M137 550L137 552L139 552L139 550L137 550M785 553.424C778.31 554.303 771.656 553.917 765 555.286C749.098 558.556 734.248 564.75 719 569.992C698.533 577.027 677.81 582.975 656.83 588.559C650.617 590.214 644.28 590.622 638 591.804C619.753 595.237 601.515 599.038 583 600.83C573.018 601.796 562.988 601.405 553 602.089C545.635 602.594 538.371 604.406 531 604.911C522.733 605.477 514.285 605 506 605C476.499 605 447.177 603.921 418.91 613.023C405.118 617.464 389.995 623.7 380.409 635.468C377.544 638.984 375.656 643.697 374.375 648C368.485 667.781 378.82 681.319 392.79 694.269C396.451 697.663 399.834 701.806 404.039 704.531C407.506 706.777 411.497 708.094 415 710.342C421.156 714.292 427.168 718.613 434 721.36C443.471 725.168 452.43 730.692 461.514 735.147C466.094 737.394 472.112 738.022 476.999 739.799C484.135 742.395 490.607 745.979 498 748.127C511.866 752.156 525.893 753.093 539.911 756.22C576.193 764.314 612.871 766.665 650 765.039C664.087 764.422 678.066 763.95 691.985 761.557C709.397 758.564 726.475 752.208 743 746.015C748.628 743.905 754.411 743.222 759.83 740.409C768.65 735.831 776.415 729.089 784.08 722.861C803.517 707.069 821.46 687.519 830.914 663.999C840.588 639.93 844.268 614.671 840.427 589C838.944 579.084 835.134 564.695 826.557 558.479C822.684 555.672 818.52 555.466 814 554.679C804.455 553.018 794.723 552.148 785 553.424z"/>
    <path style="fill:#2C6E49; stroke:none;" d="M686 565C686.793 567.907 689.036 571.814 688.215 574.857C686.824 580.013 678.267 580.909 674 581L674 583C681.068 582.849 688.283 581.225 694 577C691.322 573.153 690.106 567.372 686 565M659 585C664.147 587.16 668.779 584.339 674 584C669.137 581.978 664.025 584.562 659 585z"/>
    <path style="fill:#5E926F; stroke:none;" d="M668 584C669.769 584.779 671.036 584.912 673 585C671.231 584.221 669.964 584.088 668 584z"/>
    <path style="fill:#2C6E49; stroke:none;" d="M645 588C647.806 589.146 650.071 588.692 653 588C650.194 586.854 647.929 587.308 645 588z"/>
    <path style="fill:#2C6E49; stroke:none;" d="M757.667 597.333C757.222 597.778 758.278 597.722 758.333 597.667C758.778 597.222 757.722 597.278 757.667 597.333z"/>
    <path style="fill:#010101; stroke:none;" d="M759 597.443C753.121 598.298 746.943 600.219 742.015 603.599C728.625 612.782 725.453 634.101 735.532 646.985C742.872 656.368 757.299 661.436 769 659.791C773.429 659.168 778.135 657.331 782 655.12C785.252 653.259 788.254 650.917 790.61 647.985C808.501 625.721 785.546 593.58 759 597.443z"/>
    <path style="fill:#2C6E49; stroke:none;" d="M765 597C766.248 597.685 766.548 597.749 768 598C766.752 597.315 766.451 597.251 765 597z"/>
    <path style="fill:#5E926F; stroke:none;" d="M752 598L753 599L752 598z"/>
    <path style="fill:#2C6E49; stroke:none;" d="M753 598L754 599L753 598M771.667 598.333C771.222 598.778 772.278 598.722 772.333 598.667C772.778 598.222 771.722 598.278 771.667 598.333M750 599L751 600L750 599M775 599L776 600L775 599z"/>
    <path style="fill:#5E926F; stroke:none;" d="M745 601L746 602L745 601z"/>
    <path style="fill:#2C6E49; stroke:none;" d="M781 602L782 603L781 602z"/>
    <path style="fill:#5E926F; stroke:none;" d="M740 604L741 605L740 604z"/>
    <path style="fill:#2C6E49; stroke:none;" d="M739 605L740 606L739 605M785 605L786 606L785 605M738 606L739 607L738 606M786 606L787 607L786 606M736 608L737 609L736 608M788 608L789 609L788 608M735 609L736 610L735 609M789 609L790 610L789 609z"/>
    <path style="fill:#2C6E49; stroke:none;" d="M790 610L791 611L790 610z"/>
    <path style="fill:#2C6E49; stroke:none;" d="M733 612L734 613L733 612z"/>
    <path style="fill:#F7EEE7; stroke:none;" d="M749.059 613.851C741.312 616.149 746.313 628.051 753.891 625.218C761.072 622.533 755.429 611.962 749.059 613.851z"/>
    <path style="fill:#5E926F; stroke:none;" d="M792 613L793 614L792 613z"/>
    <path style="fill:#2C6E49; stroke:none;" d="M732 614L733 615L732 614M793 615L794 616L793 615M731 616L732 617L731 616z"/>
    <path style="fill:#5E926F; stroke:none;" d="M794 617L795 618L794 617z"/>
    <path style="fill:#2C6E49; stroke:none;" d="M744 618L744 621C744.696 619.446 744.696 619.554 744 618M730 619L731 620L730 619M795 620L796 621L795 620M757 622L758 623L757 622M729 623L729 633C730.346 629.793 730.346 626.207 729 623M796 623L796 626C796.696 624.446 796.696 624.554 796 623M749 625L750 626L749 625M754 625L755 626L754 625M579.667 630.333C579.222 630.778 580.278 630.722 580.333 630.667C580.778 630.222 579.722 630.278 579.667 630.333z"/>
    <path style="fill:#010101; stroke:none;" d="M581 630.468C575.487 631.377 569.808 633.236 565 636.093C547.616 646.424 544.755 671.568 559.093 685.907C568.205 695.019 581.621 697.549 594 695.56C598.539 694.831 603.106 693.352 607 690.867C637.207 671.594 614.265 624.983 581 630.468z"/>
    <path style="fill:#2C6E49; stroke:none;" d="M587 630C588.248 630.685 588.548 630.749 590 631C588.752 630.315 588.452 630.251 587 630z"/>
    <path style="fill:#5E926F; stroke:none;" d="M590.667 630.333C590.222 630.778 591.278 630.722 591.333 630.667C591.778 630.222 590.722 630.278 590.667 630.333z"/>
    <path style="fill:#2C6E49; stroke:none;" d="M575 631L576 632L575 631z"/>
    <path style="fill:#2C6E49; stroke:none;" d="M576 631L577 632L576 631M594.667 631.333C594.222 631.778 595.278 631.722 595.333 631.667C595.778 631.222 594.722 631.278 594.667 631.333M572 632L573 633L572 632M598 632L599 633L598 632z"/>
    <path style="fill:#F7EEE7; stroke:none;" d="M890 632L890 634L892 634L892 632L890 632z"/>
    <path style="fill:#2C6E49; stroke:none;" d="M570 633L571 634L570 633M600 633L601 634L600 633z"/>
    <path style="fill:#5E926F; stroke:none;" d="M567 634L568 635L567 634z"/>
    <path style="fill:#2C6E49; stroke:none;" d="M604 635L605 636L604 635M564 636L565 637L564 636M730 636L731 637L730 636z"/>
    <path style="fill:#5E926F; stroke:none;" d="M562 637L563 638L562 637z"/>
    <path style="fill:#2C6E49; stroke:none;" d="M607 637L608 638L607 637M561 638L562 639L561 638M795 638L796 639L795 638M731 639L732 640L731 639z"/>
    <path style="fill:#5E926F; stroke:none;" d="M795 639L796 640L795 639z"/>
    <path style="fill:#F7EEE7; stroke:none;" d="M234.333 641.667C234.278 641.722 234.222 642.778 234.667 642.333C234.722 642.278 234.778 641.222 234.333 641.667z"/>
    <path style="fill:#2C6E49; stroke:none;" d="M794 641L795 642L794 641M793 643L794 644L793 643M555 644L556 645L555 644M614 644L615 645L614 644z"/>
    <path style="fill:#5E926F; stroke:none;" d="M615 645L616 646L615 645z"/>
    <path style="fill:#2C6E49; stroke:none;" d="M734 645L735 646L734 645M792 645L793 646L792 645z"/>
    <path style="fill:#F7EEE7; stroke:none;" d="M894 645L894 647L896 647L896 645L894 645z"/>
    <path style="fill:#2C6E49; stroke:none;" d="M553 647L554 648L553 647z"/>
    <path style="fill:#2C6E49; stroke:none;" d="M570 647L571 648L570 647z"/>
    <path style="fill:#F7EEE7; stroke:none;" d="M571.019 647.956C562.617 649.929 567.077 662.158 574.956 660.253C583.399 658.211 578.311 646.244 571.019 647.956z"/>
    <path style="fill:#2C6E49; stroke:none;" d="M573 647L574 648L573 647M616 647L617 648L616 647M568 648L569 649L568 648z"/>
    <path style="fill:#5E926F; stroke:none;" d="M575 648L576 649L575 648z"/>
    <path style="fill:#2C6E49; stroke:none;" d="M790 648L791 649L790 648z"/>
    <path style="fill:#5E926F; stroke:none;" d="M552 649L553 650L552 649M567 649L568 650L567 649z"/>
    <path style="fill:#2C6E49; stroke:none;" d="M789 649L790 650L789 649M788 650L789 651L788 650M618 651L619 652L618 651z"/>
    <path style="fill:#5E926F; stroke:none;" d="M787 651L788 652L787 651z"/>
    <path style="fill:#2C6E49; stroke:none;" d="M551 652L552 653L551 652M579 652L580 653L579 652M741 652L742 653L741 652M619 653L620 654L619 653M784 653L785 654L784 653z"/>
    <path style="fill:#F7EEE7; stroke:none;" d="M232 654L232 656L234 656L234 654L232 654z"/>
    <path style="fill:#2C6E49; stroke:none;" d="M744 654L745 655L744 654z"/>
    <path style="fill:#5E926F; stroke:none;" d="M550 655L551 656L550 655z"/>
    <path style="fill:#2C6E49; stroke:none;" d="M746 655L747 656L746 655M781 655L782 656L781 655z"/>
    <path style="fill:#5E926F; stroke:none;" d="M566 656L567 657L566 656z"/>
    <path style="fill:#2C6E49; stroke:none;" d="M620 656L621 657L620 656M748 656L749 657L748 656M779 656L780 657L779 656M579 657L580 658L579 657M750 657L751 658L750 657M777 657L778 658L777 657M753 658L754 659L753 658M773 658L774 659L773 658z"/>
    <path style="fill:#5E926F; stroke:none;" d="M774 658L775 659L774 658z"/>
    <path style="fill:#2C6E49; stroke:none;" d="M577 659L578 660L577 659M757.667 659.333C757.222 659.778 758.278 659.722 758.333 659.667C758.778 659.222 757.722 659.278 757.667 659.333z"/>
    <path style="fill:#F7EEE7; stroke:none;" d="M897 659L897 661L899 661L899 659L897 659z"/>
    <path style="fill:#2C6E49; stroke:none;" d="M571 660L572 661L571 660M575 660L576 661L575 660M621 660L621 667C622.059 664.466 622.06 662.534 621 660z"/>
    <path style="fill:#5E926F; stroke:none;" d="M621.333 667.667C621.277 667.722 621.222 668.778 621.667 668.333C621.722 668.278 621.778 667.222 621.333 667.667M550 670L551 671L550 670z"/>
    <path style="fill:#2C6E49; stroke:none;" d="M620.333 671.667C620.278 671.722 620.222 672.778 620.667 672.333C620.722 672.278 620.778 671.222 620.333 671.667M551 673L552 674L551 673M619 675L620 676L619 675z"/>
    <path style="fill:#2C6E49; stroke:none;" d="M552 676L553 677L552 676z"/>
    <path style="fill:#2C6E49; stroke:none;" d="M553 678L554 679L553 678z"/>
    <path style="fill:#5E926F; stroke:none;" d="M618 678L619 679L618 678z"/>
    <path style="fill:#2C6E49; stroke:none;" d="M555 681L556 682L555 681M616 681L617 682L616 681M719 681C720.248 681.685 720.548 681.749 722 682C720.752 681.315 720.451 681.251 719 681M717 682L718 683L717 682z"/>
    <path style="fill:#010101; stroke:none;" d="M718.328 683.047C714.422 685.574 717.661 694.273 717.911 698C718.615 708.529 714.788 720.186 704 724.029C692.919 727.977 677.683 718.269 672.367 709C670.361 705.503 669.9 701.844 668.862 698.044C668.138 695.393 665.508 691.967 662.6 694.647C657.088 699.728 664.832 713.807 668.329 717.996C678.895 730.657 700.575 738.249 714.996 727.442C724.521 720.304 726.92 707.258 725.83 696C725.512 692.707 724.682 678.937 718.328 683.047z"/>
    <path style="fill:#2C6E49; stroke:none;" d="M614 684L615 685L614 684z"/>
    <path style="fill:#5E926F; stroke:none;" d="M558 685L559 686L558 685z"/>
    <path style="fill:#2C6E49; stroke:none;" d="M613 685L614 686L613 685M724 685L724 688C724.696 686.446 724.696 686.554 724 685M612 686L613 687L612 686z"/>
    <path style="fill:#F7EEE7; stroke:none;" d="M228 687L228 689L230 689L230 687L228 687z"/>
    <path style="fill:#2C6E49; stroke:none;" d="M611 687L612 688L611 687z"/>
    <path style="fill:#2C6E49; stroke:none;" d="M716.333 687.667C716.278 687.722 716.222 688.778 716.667 688.333C716.722 688.278 716.778 687.222 716.333 687.667z"/>
    <path style="fill:#2C6E49; stroke:none;" d="M610 688L611 689L610 688M563 689L564 690L563 689M607 690L608 691L607 690z"/>
    <path style="fill:#5E926F; stroke:none;" d="M725.333 690.667C725.278 690.722 725.222 691.778 725.667 691.333C725.722 691.278 725.778 690.222 725.333 690.667z"/>
    <path style="fill:#2C6E49; stroke:none;" d="M566 691L567 692L566 691z"/>
    <path style="fill:#2C6E49; stroke:none;" d="M568 692L569 693L568 692z"/>
    <path style="fill:#5E926F; stroke:none;" d="M604 692L605 693L604 692z"/>
    <path style="fill:#2C6E49; stroke:none;" d="M725.333 692.667C725.278 692.722 725.222 693.778 725.667 693.333C725.722 693.278 725.778 692.222 725.333 692.667z"/>
    <path style="fill:#5E926F; stroke:none;" d="M570 693L571 694L570 693z"/>
    <path style="fill:#2C6E49; stroke:none;" d="M601 693L602 694L601 693M662 693L663 694L662 693M666 693L667 694L666 693M573 694L574 695L573 694M599 694L600 695L599 694M661 694L662 695L661 694M717.333 694.667C717.278 694.722 717.222 695.778 717.667 695.333C717.722 695.278 717.778 694.222 717.333 694.667M576 695L577 696L576 695M594 695C595.248 695.685 595.548 695.749 597 696C595.752 695.315 595.452 695.251 594 695z"/>
    <path style="fill:#5E926F; stroke:none;" d="M668 695L669 696L668 695z"/>
    <path style="fill:#2C6E49; stroke:none;" d="M581 696C584.163 697.327 587.586 697 591 697C587.837 695.673 584.414 696 581 696M660 696L660 699C660.696 697.446 660.696 697.554 660 696z"/>
    <path style="fill:#5E926F; stroke:none;" d="M717 696L717 699C717.696 697.446 717.696 697.554 717 696z"/>
    <path style="fill:#2C6E49; stroke:none;" d="M669.333 700.667C669.278 700.722 669.222 701.778 669.667 701.333C669.722 701.278 669.778 700.222 669.333 700.667z"/>
    <path style="fill:#5E926F; stroke:none;" d="M717 702L717 707C717.83 704.97 717.83 704.03 717 702z"/>
    <path style="fill:#2C6E49; stroke:none;" d="M661 703L662 704L661 703M670 705L671 706L670 705M662.333 706.667C662.278 706.722 662.222 707.778 662.667 707.333C662.722 707.278 662.778 706.222 662.333 706.667M725 707L725 710C725.696 708.446 725.696 708.554 725 707z"/>
    <path style="fill:#5E926F; stroke:none;" d="M663 710L664 711L663 710z"/>
    <path style="fill:#2C6E49; stroke:none;" d="M673 711L674 712L673 711M716 711L717 712L716 711z"/>
    <path style="fill:#2C6E49; stroke:none;" d="M664 712L665 713L664 712z"/>
    <path style="fill:#5E926F; stroke:none;" d="M674 712L675 713L674 712M675 713L676 714L675 713M715 713L716 714L715 713z"/>
    <path style="fill:#2C6E49; stroke:none;" d="M724 713L725 714L724 713z"/>
    <path style="fill:#5E926F; stroke:none;" d="M676 714L677 715L676 714z"/>
    <path style="fill:#2C6E49; stroke:none;" d="M666 715L667 716L666 715z"/>
    <path style="fill:#5E926F; stroke:none;" d="M677 715L678 716L677 715z"/>
    <path style="fill:#2C6E49; stroke:none;" d="M678 716L679 717L678 716z"/>
    <path style="fill:#5E926F; stroke:none;" d="M723 716L724 717L723 716z"/>
    <path style="fill:#2C6E49; stroke:none;" d="M679 717L680 718L679 717M713 717L714 718L713 717z"/>
    <path style="fill:#5E926F; stroke:none;" d="M668 718L669 719L668 718z"/>
    <path style="fill:#2C6E49; stroke:none;" d="M712 718L713 719L712 718z"/>
    <path style="fill:#2C6E49; stroke:none;" d="M722 718L723 719L722 718z"/>
    <path style="fill:#5E926F; stroke:none;" d="M669 719L670 720L669 719z"/>
    <path style="fill:#2C6E49; stroke:none;" d="M682 719L683 720L682 719z"/>
    <path style="fill:#5E926F; stroke:none;" d="M711 719L712 720L711 719M670 720L671 721L670 720z"/>
    <path style="fill:#2C6E49; stroke:none;" d="M684 720L685 721L684 720z"/>
    <path style="fill:#2C6E49; stroke:none;" d="M721 720L722 721L721 720z"/>
    <path style="fill:#2C6E49; stroke:none;" d="M686 721L687 722L686 721M709 721L710 722L709 721M688 722L689 723L688 722M691 723L692 724L691 723z"/>
    <path style="fill:#5E926F; stroke:none;" d="M705 723L706 724L705 723M719 723L720 724L719 723z"/>
    <path style="fill:#2C6E49; stroke:none;" d="M675 724L676 725L675 724M696.667 724.333C696.222 724.778 697.278 724.722 697.333 724.667C697.778 724.222 696.722 724.278 696.667 724.333z"/>
    <path style="fill:#2C6E49; stroke:none;" d="M698 724C699.248 724.685 699.549 724.749 701 725C699.752 724.315 699.452 724.251 698 724z"/>
    <path style="fill:#2C6E49; stroke:none;" d="M701 724C702.248 724.685 702.549 724.749 704 725C702.752 724.315 702.452 724.251 701 724M718 724L719 725L718 724M717 725L718 726L717 725M678 726L679 727L678 726z"/>
    <path style="fill:#5E926F; stroke:none;" d="M716 726L717 727L716 726z"/>
    <path style="fill:#2C6E49; stroke:none;" d="M680 727L681 728L680 727M713 728L714 729L713 728M684 729L685 730L684 729z"/>
    <path style="fill:#5E926F; stroke:none;" d="M712 729L713 730L712 729z"/>
    <path style="fill:#2C6E49; stroke:none;" d="M686 730L687 731L686 730M709 730L710 731L709 730M689.667 731.333C689.222 731.778 690.278 731.722 690.333 731.667C690.778 731.222 689.722 731.278 689.667 731.333M706 731L707 732L706 731z"/>
    <path style="fill:#2C6E49; stroke:none;" d="M693.667 732.333C693.222 732.778 694.278 732.722 694.333 732.667C694.778 732.222 693.722 732.278 693.667 732.333z"/>
    <path style="fill:#5E926F; stroke:none;" d="M700.667 732.333C700.222 732.778 701.278 732.722 701.333 732.667C701.778 732.222 700.722 732.278 700.667 732.333z"/>
    <path style="fill:#F7EEE7; stroke:none;" d="M228 750L228 752L230 752L230 750L228 750z"/>
    <path style="fill:#2C6E49; stroke:none;" d="M721 755C726.633 756.331 732.415 752.684 738 752C738.052 770.68 742.067 788.472 743.83 807C745.034 819.652 744.845 833.305 744.996 846C745.243 866.792 744.801 888.307 742.83 909C741.965 918.087 739.007 926.939 739 936C740.67 934.33 739.697 933.424 742 934C742.676 918.249 745.832 902.73 746.911 887C748.137 869.107 746.82 850.836 746.039 833C745.485 820.35 746.201 807.594 744.714 795C743.426 784.076 741.216 773.99 740.17 763C739.882 759.972 741.125 754.169 738.397 752.029C734.257 748.782 725.106 753.377 721 755z"/>
    <path style="fill:#2C6E49; stroke:none;" d="M661 912L658 912C657.082 932.091 647.516 951.11 645 971C637.632 972.08 638.155 978.716 635.585 984.385C632.431 991.342 630.157 998.617 626.986 1005.56C624.236 1011.58 620.368 1017.03 617.782 1023.16C615.931 1027.54 613.3 1033.78 615.858 1038.44C617.492 1041.42 621.603 1041.97 624.381 1043.42C630.404 1046.57 635.406 1050.61 641.844 1053.27C646.49 1055.19 649.995 1058.22 654.235 1060.75C668.394 1069.22 685.259 1080 702 1080C707.015 1066.48 713.951 1053.49 718.598 1039.73C727.188 1014.29 732.572 987.406 737.259 961.089C738.766 952.63 742.819 944.362 744 936L739 936C739.03 927.324 742 918.721 742.83 910C744.865 888.637 745.251 866.468 744.996 845C744.845 832.305 745.034 818.652 743.83 806C742.099 787.807 738.152 770.332 738 752C733.472 752.288 729.417 754.06 725 754.996C713.243 757.487 701.679 760.326 690 763.101C686.075 764.034 676.636 762.31 674.028 765.603C671.954 768.221 673 773.879 673 777C673 786.608 673.567 796.414 672.911 806C672.419 813.182 670.976 820.061 670.129 827.089C667.97 845.006 668.036 863.148 665.711 881C664.37 891.295 661.3 901.624 661 912z"/>
    <path style="fill:#5E926F; stroke:none;" d="M697 759L697 761C701.194 760.911 704.937 759.929 709 759C705.197 757.449 701.031 758.827 697 759z"/>
    <path style="fill:#2C6E49; stroke:none;" d="M682 763C686.531 764.883 691.384 762.952 696 762C691.695 760.46 686.553 762.802 682 763M665 768C670.675 781.367 671.807 797.493 669.791 812C669.081 817.108 666.742 822.005 666.129 827.089C665.101 835.618 666.497 844.429 665.911 853C664.155 878.64 660.064 906.304 651.259 930.039C648.852 936.527 649.154 943.409 647.698 950C647.067 952.854 645.259 955.245 644.336 958C643.254 961.228 643.11 965.827 640.437 968.258C637.41 971.009 630.863 970.265 627 971C617.595 972.79 607.283 972.828 598.093 975.415C593.847 976.61 591.696 979.679 587 980L587 982C603.668 982 620.631 978.526 636.816 974.723C639.796 974.023 641.987 971.773 645 971C647.043 960.036 649.67 948.813 652.549 938.039C654.818 929.551 657.81 920.924 658 912L661 912C661.997 896.314 665.916 880.476 667.872 864.911C669.366 853.023 669.218 840.951 670.054 829.015C670.564 821.736 672.402 814.421 672.911 807C673.838 793.456 673 779.577 673 766L665 768M899 770L899 774L901 774L901 770L899 770z"/>
    <path style="fill:#F7EEE7; stroke:none;" d="M239.667 811.333C239.222 811.778 240.278 811.722 240.333 811.667C240.778 811.222 239.722 811.278 239.667 811.333M868 842L868 844L870 844L870 842L868 842z"/>
    <path style="fill:#2C6E49; stroke:none;" d="M861 851L861 853L863 853L863 851L861 851z"/>
    <path style="fill:#F7EEE7; stroke:none;" d="M261.667 864.333C261.222 864.778 262.278 864.722 262.333 864.667C262.778 864.222 261.722 864.278 261.667 864.333M266 873L266 875L268 875L268 873L266 873M270 878L270 880L272 880L272 878L270 878z"/>
    <path style="fill:#2C6E49; stroke:none;" d="M832 882L832 884L834 884L834 882L832 882z"/>
    <path style="fill:#2C6E49; stroke:none;" d="M804 904L804 906L806 906L806 904L804 904M338.333 940.667C338.278 940.722 338.222 941.778 338.667 941.333C338.722 941.278 338.778 940.222 338.333 940.667z"/>
    <path style="fill:#F7EEE7; stroke:none;" d="M409 969L409 971L411 971L411 969L409 969z"/>
    <path style="fill:#5E926F; stroke:none;" d="M629 975L629 977L631 977L631 975L629 975z"/>
    <path style="fill:#F7EEE7; stroke:none;" d="M454.667 979.333C454.222 979.778 455.278 979.722 455.333 979.667C455.778 979.222 454.722 979.278 454.667 979.333M487 982L487 984L489 984L489 982L487 982z"/>
    <path style="fill:#2C6E49; stroke:none;" d="M518 982L518 984L556 984L556 982L518 982z"/>
    <path style="fill:#F7EEE7; stroke:none;" d="M583 982L583 984L586 984L586 982L583 982z"/>
</svg>
