<svg width="36" height="40" viewBox="0 0 36 40" fill="none" xmlns="http://www.w3.org/2000/svg">
<rect width="36" height="40" fill="#1E1E1E"/>
<path d="M-1470 -537C-1470 -538.104 -1469.1 -539 -1468 -539H3736C3737.1 -539 3738 -538.105 3738 -537V9604C3738 9605.1 3737.1 9606 3736 9606H-1468C-1469.1 9606 -1470 9605.1 -1470 9604V-537Z" fill="#444444"/>
<path d="M-1468 -538H3736V-540H-1468V-538ZM3737 -537V9604H3739V-537H3737ZM3736 9605H-1468V9607H3736V9605ZM-1469 9604V-537H-1471V9604H-1469ZM-1468 9605C-1468.55 9605 -1469 9604.55 -1469 9604H-1471C-1471 9605.66 -1469.66 9607 -1468 9607V9605ZM3737 9604C3737 9604.55 3736.55 9605 3736 9605V9607C3737.66 9607 3739 9605.66 3739 9604H3737ZM3736 -538C3736.55 -538 3737 -537.552 3737 -537H3739C3739 -538.657 3737.66 -540 3736 -540V-538ZM-1468 -540C-1469.66 -540 -1471 -538.656 -1471 -537H-1469C-1469 -537.552 -1468.55 -538 -1468 -538V-540Z" fill="white" fill-opacity="0.1"/>
<g clip-path="url(#clip0_175_927)">
<rect width="412" height="917" transform="translate(-330 -371)" fill="#F7EEE7"/>
<rect x="-22" y="-11" width="80" height="80" rx="5" fill="#FFFCFB"/>
<path d="M11.4297 5.20996L10.9375 6.1875H4.375C3.16504 6.1875 2.1875 7.16504 2.1875 8.375C2.1875 9.58496 3.16504 10.5625 4.375 10.5625H30.625C31.835 10.5625 32.8125 9.58496 32.8125 8.375C32.8125 7.16504 31.835 6.1875 30.625 6.1875H24.0625L23.5703 5.20996C23.2012 4.46484 22.4424 4 21.6152 4H13.3848C12.5576 4 11.7988 4.46484 11.4297 5.20996ZM30.625 12.75H4.375L5.82422 35.9238C5.93359 37.6533 7.36914 39 9.09863 39H25.9014C27.6309 39 29.0664 37.6533 29.1758 35.9238L30.625 12.75Z" fill="#5E926F"/>
</g>
<defs>
<clipPath id="clip0_175_927">
<rect width="412" height="917" fill="white" transform="translate(-330 -371)"/>
</clipPath>
</defs>
</svg>
