<svg width="22" height="23" viewBox="0 0 22 23" fill="none" xmlns="http://www.w3.org/2000/svg">
    <path d="M8.65625 21.6562V16.1792C8.65625 15.7969 9.04688 15.4062 9.4375 15.4062H12.5625C12.9531 15.4062 13.3438 15.7969 13.3438 16.1875V21.6562C13.3438 22.0877 13.6935 22.4375 14.125 22.4375H20.375C20.8065 22.4375 21.1562 22.0877 21.1562 21.6562V10.7188C21.1562 10.5115 21.0739 10.3128 20.9274 10.1663L18.8125 8.0514V2.90625C18.8125 2.47478 18.4627 2.125 18.0312 2.125H16.4688C16.0373 2.125 15.6875 2.47478 15.6875 2.90625V4.9264L11.5524 0.791323C11.2473 0.486226 10.7527 0.486226 10.4476 0.791323L1.07257 10.1663C0.92606 10.3128 0.84375 10.5115 0.84375 10.7188V21.6562C0.84375 22.0877 1.19353 22.4375 1.625 22.4375H7.875C8.30647 22.4375 8.65625 22.0877 8.65625 21.6562Z" fill="#2C6E49"/>
</svg>
