<svg width="40" height="40" viewBox="0 0 40 40" fill="none" xmlns="http://www.w3.org/2000/svg">
<rect width="40" height="40" fill="#1E1E1E"/>
<path d="M-1373 -537C-1373 -538.104 -1372.1 -539 -1371 -539H3833C3834.1 -539 3835 -538.105 3835 -537V9604C3835 9605.1 3834.1 9606 3833 9606H-1371C-1372.1 9606 -1373 9605.1 -1373 9604V-537Z" fill="#444444"/>
<path d="M-1371 -538H3833V-540H-1371V-538ZM3834 -537V9604H3836V-537H3834ZM3833 9605H-1371V9607H3833V9605ZM-1372 9604V-537H-1374V9604H-1372ZM-1371 9605C-1371.55 9605 -1372 9604.55 -1372 9604H-1374C-1374 9605.66 -1372.66 9607 -1371 9607V9605ZM3834 9604C3834 9604.55 3833.55 9605 3833 9605V9607C3834.66 9607 3836 9605.66 3836 9604H3834ZM3833 -538C3833.55 -538 3834 -537.552 3834 -537H3836C3836 -538.657 3834.66 -540 3833 -540V-538ZM-1371 -540C-1372.66 -540 -1374 -538.656 -1374 -537H-1372C-1372 -537.552 -1371.55 -538 -1371 -538V-540Z" fill="white" fill-opacity="0.1"/>
<g clip-path="url(#clip0_175_927)">
<rect width="412" height="917" transform="translate(-233 -371)" fill="#F7EEE7"/>
<rect x="-20" y="-11" width="80" height="80" rx="5" fill="#FFFCFB"/>
<path d="M16.875 14.5858C15.0078 15.6639 13.75 17.6874 13.75 19.9999H2.49996C1.11715 19.9999 -0.0156632 18.8749 0.156212 17.5077C0.835899 12.0311 3.73434 7.24207 7.91402 4.06238C9.01559 3.22645 10.5546 3.64832 11.25 4.84363L16.875 14.5858ZM20 26.2499C21.1406 26.2499 22.2031 25.9452 23.125 25.4139L28.75 35.1639C29.4375 36.3593 29.039 37.9061 27.7656 38.4374C25.375 39.4452 22.75 39.9999 20 39.9999C17.25 39.9999 14.6172 39.4452 12.2343 38.4374C10.9609 37.8983 10.5625 36.3593 11.25 35.1639L16.875 25.4139C17.7968 25.9452 18.8593 26.2499 20 26.2499ZM37.5 19.9999H26.25C26.25 17.6874 24.9921 15.6639 23.125 14.5858L28.75 4.84363C29.4375 3.64832 30.9843 3.22645 32.0859 4.06238C36.2734 7.24207 39.164 12.0311 39.8515 17.5077C40.0234 18.8749 38.8828 19.9999 37.5078 19.9999H37.5ZM20 16.2499C20.9945 16.2499 21.9484 16.645 22.6516 17.3482C23.3549 18.0515 23.75 19.0053 23.75 19.9999C23.75 20.9944 23.3549 21.9483 22.6516 22.6515C21.9484 23.3548 20.9945 23.7499 20 23.7499C19.0054 23.7499 18.0516 23.3548 17.3483 22.6515C16.6451 21.9483 16.25 20.9944 16.25 19.9999C16.25 19.0053 16.6451 18.0515 17.3483 17.3482C18.0516 16.645 19.0054 16.2499 20 16.2499Z" fill="#5E926F"/>
</g>
<defs>
<clipPath id="clip0_175_927">
<rect width="412" height="917" fill="white" transform="translate(-233 -371)"/>
</clipPath>
</defs>
</svg>
