<svg width="40" height="40" viewBox="0 0 40 40" fill="none" xmlns="http://www.w3.org/2000/svg">
<rect width="40" height="40" fill="#1E1E1E"/>
<path d="M-1278 -536C-1278 -537.104 -1277.1 -538 -1276 -538H3928C3929.1 -538 3930 -537.105 3930 -536V9605C3930 9606.1 3929.1 9607 3928 9607H-1276C-1277.1 9607 -1278 9606.1 -1278 9605V-536Z" fill="#444444"/>
<path d="M-1276 -537H3928V-539H-1276V-537ZM3929 -536V9605H3931V-536H3929ZM3928 9606H-1276V9608H3928V9606ZM-1277 9605V-536H-1279V9605H-1277ZM-1276 9606C-1276.55 9606 -1277 9605.55 -1277 9605H-1279C-1279 9606.66 -1277.66 9608 -1276 9608V9606ZM3929 9605C3929 9605.55 3928.55 9606 3928 9606V9608C3929.66 9608 3931 9606.66 3931 9605H3929ZM3928 -537C3928.55 -537 3929 -536.552 3929 -536H3931C3931 -537.657 3929.66 -539 3928 -539V-537ZM-1276 -539C-1277.66 -539 -1279 -537.656 -1279 -536H-1277C-1277 -536.552 -1276.55 -537 -1276 -537V-539Z" fill="white" fill-opacity="0.1"/>
<g clip-path="url(#clip0_175_927)">
<rect width="412" height="917" transform="translate(-138 -370)" fill="#F7EEE7"/>
<rect x="-20" y="-10" width="80" height="80" rx="5" fill="#FFFCFB"/>
<path d="M21.25 7.50002C15.1094 7.50002 9.91406 11.5235 8.14844 17.0703C10.7734 15.7422 13.7344 15 16.875 15H23.75C24.4375 15 25 15.5625 25 16.25C25 16.9375 24.4375 17.5 23.75 17.5H22.5H16.875C15.5781 17.5 14.3203 17.6485 13.1016 17.9219C11.0781 18.3828 9.20312 19.2031 7.52344 20.3203C2.99219 23.3438 0 28.5078 0 34.375V35.625C0 36.6641 0.835938 37.5 1.875 37.5C2.91406 37.5 3.75 36.6641 3.75 35.625V34.375C3.75 30.5703 5.36719 27.1485 7.95312 24.75C9.5 30.6485 14.8672 35 21.25 35H21.3281C31.6484 34.9453 40 24.7735 40 12.2344C40 8.90627 39.4141 5.74221 38.3516 2.89065C38.1484 2.35158 37.3594 2.37502 37.0859 2.88283C35.6172 5.63283 32.7109 7.50002 29.375 7.50002H21.25Z" fill="#5E926F"/>
</g>
<defs>
<clipPath id="clip0_175_927">
<rect width="412" height="917" fill="white" transform="translate(-138 -370)"/>
</clipPath>
</defs>
</svg>
