<svg width="50" height="50" viewBox="0 0 50 50" fill="none" xmlns="http://www.w3.org/2000/svg">
<g id="plus">
<path id="plus (Stroke)" d="M25 12.5C25.8629 12.5 26.5625 13.1996 26.5625 14.0625V23.4375H35.9375C36.8004 23.4375 37.5 24.1371 37.5 25C37.5 25.8629 36.8004 26.5625 35.9375 26.5625H26.5625V35.9375C26.5625 36.8004 25.8629 37.5 25 37.5C24.1371 37.5 23.4375 36.8004 23.4375 35.9375V26.5625H14.0625C13.1996 26.5625 12.5 25.8629 12.5 25C12.5 24.1371 13.1996 23.4375 14.0625 23.4375H23.4375V14.0625C23.4375 13.1996 24.1371 12.5 25 12.5Z" fill="#FFFCFB"/>
</g>
</svg>
