<?xml version="1.0" standalone="yes"?>
<svg xmlns="http://www.w3.org/2000/svg" width="1080" height="1080">
<!--
    F7EEE7 mask
    A46160 leaf
    7C3F3E leaf veins
    010101 eyes
-->
    <path style="fill:#A46160; stroke:none;" d="M338 0C338 53.9695 340.402 108.042 338.039 162C337.69 169.973 338.503 178.024 337.946 185.985C337.748 188.817 336.465 191.302 336.129 194.089C335.576 198.679 336.41 203.37 335.871 207.961C334.889 216.324 333.136 224.729 332.129 233.089C331.536 238.008 332.449 243.04 331.871 247.961C331.005 255.339 329.018 262.714 328.129 270.089C327.218 277.641 327.757 285.42 326.871 292.961C325.378 305.682 321.771 318.612 319.255 331.169C314.219 356.295 309.754 381.299 303.205 406.155C301.294 413.41 300.268 428.098 291.826 430.525C289.373 431.231 286.764 430.853 284.285 431.455C281.076 432.235 276.576 434.77 273.235 433.902C265.102 431.789 258.506 421.321 252.715 415.887C234.905 399.177 218.144 380.494 203.179 361.235C196.552 352.705 190.534 343.781 184.258 334.997C181.629 331.318 178.673 327.114 173.594 329.984C167.37 333.5 164.293 338.395 159.424 343.279C145.419 357.326 135.08 371.489 126.585 389.389C123.122 396.686 115.988 408.006 121.279 416.235C123.204 419.231 126.476 419.853 129.576 421.014C135.895 423.38 142.434 425.212 148.714 427.625C167.282 434.761 185.889 441.212 204.715 447.671C213.455 450.67 222.862 455.79 232 457L232 460C219.431 460 206.551 460.823 194.015 459.946C190.551 459.704 187.483 458.149 183.985 458.018C172.06 457.574 159.897 458.263 148.039 456.871C134.617 455.295 121.645 451 108 451C108 470.862 106.289 491.631 109.741 511.089C111.124 518.888 111.656 525.474 115.451 532.664C118.714 538.846 120.933 550.748 129.093 552.542C137.76 554.446 147.675 545.375 155.17 542.299C181.36 531.553 205.923 517.18 232.081 506.331C238.007 503.873 243.638 500.826 249.573 498.38C251.905 497.418 255.158 495.39 257.765 496.102C260.492 496.846 263.273 500.013 265.113 502.025C266.423 503.457 268.398 505.294 268.894 507.235C269.589 509.958 266.84 512.6 266.249 515.174C264.013 524.921 260.608 533.775 257.402 543.272C251.763 559.975 248.664 577.769 244.546 594.83C242.267 604.268 239.008 613.625 237.259 623.17C235.461 632.982 235.463 643.109 233.741 652.911C232.794 658.297 230.783 663.659 230.129 669.089C229.496 674.337 230.487 679.711 229.871 684.961C227.191 707.792 227.191 731.208 229.871 754.039C231.504 767.946 232.062 782.062 235.22 795.83C246.673 845.769 272.958 894.369 314.503 925.497C342.869 946.75 374.688 960.702 408.83 969.452C420.342 972.402 431.405 976.613 443.17 978.741C450.22 980.016 457.824 979.288 464.961 980.129C474.227 981.221 483.738 983.282 493.039 983.946C510.833 985.217 529.157 984 547 984C571.403 984 594.864 982.416 618.911 978.886C624.323 978.091 629.638 976.182 634.999 975.074C638.284 974.395 641.075 973.482 639 970C643.318 967.057 643.839 962.55 646.12 958.169C649.693 951.304 650.567 945.456 652.549 938.039C654.818 929.551 657.81 920.924 658 912L661 912C661.639 901.943 664.407 892.01 665.711 882C668.001 864.42 668.809 846.781 670.054 829.015C670.345 824.868 671.972 821.248 671.999 816.999C672.075 805.334 672 793.666 672 782C672 777.601 670.846 771.089 673.179 767.148C675.763 762.784 681.771 764.22 686 763.91C689.392 763.661 692.681 762.685 696 762C687.453 758.934 675.714 763.894 667 764.826C660.708 765.5 654.309 764.657 648 765.089C635.532 765.943 622.513 767.041 610 765.83C598.611 764.728 586.314 764.713 575.089 762.741C558.637 759.85 542.246 756.228 525.83 753.259C516.835 751.632 507.936 750.723 499 748.127C491.599 745.977 485.125 742.411 477.996 739.799C473.018 737.976 467.034 737.352 462.325 735.147C453.92 731.212 445.717 725.426 436.999 722.075C428.991 718.996 422.242 714.189 415 709.7C411.799 707.716 408.179 706.538 405.015 704.531C400.714 701.803 397.278 697.723 393.576 694.269C383.335 684.719 371.385 673.415 372.144 658C372.467 651.42 375.797 643.641 379.195 638.09C382.398 632.859 388.241 629.661 393 626.012C407.552 614.852 423.308 611.197 441 608.571C450.986 607.089 459.767 605 470 605C490.521 605 511.53 606.312 532 604.911C539.371 604.406 546.635 602.594 554 602.089C573.786 600.733 593.24 600.206 612.911 596.911C621.731 595.433 630.35 592.563 639.039 590.744C642.036 590.116 644.994 590.995 648 590.636C656.526 589.616 665.892 586.767 674 584C667.692 581.378 660.177 585.717 653.985 587.321C651.186 588.046 648.038 589.426 645.471 587.381C640.799 583.66 639.073 574.495 637.664 569C636.295 563.66 633.158 559.345 631.888 553.999C630.268 547.177 630.405 539.757 627.469 533.286C626.296 530.699 624.29 528.611 623.133 525.996C618.823 516.261 616.314 505.736 611.82 496C607.874 487.45 602.485 479.53 599.035 470.83C597.904 467.978 597.961 464.875 596.871 462C593.812 453.932 589.471 445.833 585.795 438C579.809 425.244 571.776 414.338 567 401C557.252 397.959 561.398 383.76 553 381C552.508 374.302 546.808 368.609 543.363 363C538.639 355.309 535.304 346.448 530.419 339C527.567 334.651 523.606 331.024 520.681 326.714C518.472 323.461 517.868 319.419 515.737 316.129C512.457 311.066 507.586 306.964 504.375 301.711C495.646 287.432 487.183 272.819 477.295 259.143C475.765 257.028 473.542 255.743 471.975 253.701C464.229 243.617 456.723 233.29 449.24 222.911C441.034 211.529 423.89 202.379 421 188C432.754 194.581 440.017 206.319 449.054 216C455.043 222.416 463.239 228.987 467 237C472.488 237.886 474.106 242.109 477.514 246C484.261 253.703 494.384 260.868 499 270L503 270C505.599 279.159 513.57 284.2 519.24 291.129C525.384 298.637 528.789 311.118 539 314C540.365 326.343 553.499 336.54 561.349 345.259C570.84 355.8 578.057 368.771 584.718 381.17C586.53 384.543 589.24 386.957 591.167 390.184C594.067 395.04 594.683 399.978 601 401C603.059 411.349 614.484 416.416 616 427L619 426C622.227 438.385 631.12 449.88 637.075 461.17C639.449 465.67 642.15 470.593 644.117 475.286C645.319 478.154 645.39 481.181 646.858 484C649.526 489.124 653.848 492.388 656.857 497.093C662.17 505.404 665.825 516.01 669.952 525C674.935 535.855 682.866 548.849 683 561L686 561C686.128 566.485 687.23 572.766 692 576C687.22 579.282 682.343 580.052 677 582C681.999 583.479 688.332 580.339 693 578.514C701.082 575.354 709.717 572.374 718 569.63C733.985 564.334 750.425 558.214 767 555.095C772.689 554.024 778.3 554.387 784 553.714C795.992 552.3 811.752 551.641 822.961 556.905C829.978 560.2 832.894 567.118 835.741 573.83C842.483 589.725 843 603.904 843 621C843 635.194 839.643 649.357 832.95 661.985C831.008 665.65 828.101 668.657 826.12 672.289C811.276 699.512 787.235 724.652 759.83 739.93C754.75 742.762 749.409 743.523 744 745.29C732.615 749.01 721.38 753.276 710 757C716.382 758.527 723.029 754.368 729 752.509C731.797 751.639 735.949 750.206 738.397 752.607C740.889 755.052 739.875 759.87 740.089 763C740.746 772.582 740.369 782.521 741.92 792C744.219 806.051 743.668 819.835 744.015 834C744.62 858.7 744.603 883.287 742.911 908C742.262 917.475 739.007 926.585 739 936C741.984 936.38 744.971 937.911 748 937.468C754.691 936.488 761.256 930.55 767.296 927.67C780.637 921.308 792.51 914.105 804.424 905.36C822.106 892.379 840.534 879.032 854.86 862.215C878.714 834.216 896.174 799.142 902.741 762.83C904.274 754.354 903 744.608 903 736C903 714.161 904.62 691.602 900.741 670.17C899.988 666.013 898.138 662.034 897.22 657.911C894.057 643.712 890.983 629.236 886.3 615.428C881.07 600.005 872.757 585.714 866.749 570.7C865.678 568.022 865.563 565.099 864.326 562.464C857.115 547.101 847.475 532.677 838.853 518.185C803.43 458.645 762.455 403.811 717.855 350.721C712.893 344.815 706.724 340.014 701.626 334.244C695.616 327.442 690.286 319.767 684.14 313.086C679.773 308.337 674.645 304.174 670.336 299.395C668.616 297.488 667.864 294.984 666.137 293.093C655.444 281.393 642.968 271.326 632.455 259.431C625.634 251.713 619.368 243.785 611.478 236.946C608.216 234.119 606.449 230.749 602 230C600.098 223.103 591.934 219.939 587.438 214.765C577.291 203.085 565.606 192.766 554.039 182.627C547.539 176.929 542.21 170.094 535.091 165.199C528.601 160.737 524.188 151.193 516 150L516 146C510.197 144.062 507.872 139.384 503.395 135.684C491.978 126.246 480.616 116.265 469.907 105.789C467.826 103.753 465.012 102.878 462.9 100.882C438.929 78.2215 412.804 58.3356 388.039 36.6273C379.513 29.1532 370.378 22.1462 362.039 14.6027C354.563 7.83899 348.66 0.00817871 338 0z"/>
    <path style="fill:#F7EEE7; stroke:none;" d="M338.333 35.6666C338.278 35.7224 338.223 36.7776 338.667 36.3334C338.722 36.2781 338.778 35.2219 338.333 35.6666M516 148L516 150L518 150L518 148L516 148M338 155L338 158C338.696 156.446 338.696 156.554 338 155M534.667 165.333C534.222 165.778 535.278 165.722 535.333 165.667C535.778 165.222 534.722 165.278 534.667 165.333M336 188L336 191L338 191L338 188L336 188z"/>
    <path style="fill:#7C3F3E; stroke:none;" d="M421 188C421.816 195.332 427.45 201.087 432.59 206.001C438.945 212.076 445.517 218.235 450.451 225.576C458.445 237.471 468.379 247.748 476.691 259.143C486.836 273.05 495.269 288.109 504.375 302.561C507.648 307.756 512.567 311.92 515.737 317.054C517.785 320.372 518.457 324.349 520.681 327.576C523.657 331.893 527.551 335.627 530.419 340C535.305 347.449 538.634 356.311 543.363 364C546.659 369.36 552.078 374.7 553 381C560.829 385.276 556.728 399.238 567 401C570.411 415.507 580.387 426.541 586.24 440C589.587 447.698 593.908 455.178 596.871 463C597.947 465.839 597.892 468.907 599.035 471.714C603.659 483.077 610.462 493.574 615.301 505C618.323 512.137 619.976 519.946 623.133 526.985C624.291 529.567 626.331 531.595 627.469 534.17C630.501 541.025 630.252 548.819 632.135 555.985C633.268 560.297 636.077 563.683 637.192 568.001C638.698 573.832 640.084 583.157 644.754 587.396C647.936 590.285 653.295 587.854 656.83 586.845C660.896 585.685 664.796 584.014 669 583.325C676.611 582.077 686.202 581.65 692 576C687.973 571.99 686.288 566.619 686 561L683 561C682.955 547.906 674.675 534.752 669.499 523C665.743 514.472 662.011 503.904 656.857 496.184C653.73 491.503 649.549 488.173 646.858 483C643.114 475.804 641.036 467.595 637.075 460.286C630.975 449.029 623.516 437.985 619 426C617.203 426 617.479 426.014 616 427C615.229 416.29 604.25 410.797 601 401C594.939 399.217 594.202 394.163 591.167 389.325C589.029 385.915 586.356 383.025 584.27 379.513C577.341 367.847 571.26 355.509 562.106 345.259C554.065 336.257 541.455 326.375 539 314C529.254 309.451 526.179 299.126 519.947 291.129C514.247 283.814 507.06 278.786 503 270L499 270C496.164 260.691 483.879 252.496 477.514 245.196C474.04 241.212 472.721 237.451 467 237C465.24 230.777 458.505 224.588 453.995 220C443.897 209.726 434.679 193.505 421 188z"/>
    <path style="fill:#F7EEE7; stroke:none;" d="M334 210L334 212L336 212L336 210L334 210M595 221L595 223L597 223L597 221L595 221M602 228L602 230L604 230L604 228L602 228M330 250L330 252L332 252L332 250L330 250M631 258L631 260L633 260L633 258L631 258M633.667 260.333C633.222 260.778 634.278 260.722 634.333 260.667C634.778 260.222 633.722 260.278 633.667 260.333M635 261L635 263L637 263L637 261L635 261M637.333 263.667C637.278 263.722 637.222 264.778 637.667 264.333C637.722 264.278 637.778 263.222 637.333 263.667M325 294L325 297L327 297L327 294L325 294M668.333 296.667C668.278 296.722 668.222 297.778 668.667 297.333C668.722 297.278 668.778 296.222 668.333 296.667M699.333 331.667C699.278 331.722 699.222 332.778 699.667 332.333C699.722 332.278 699.778 331.222 699.333 331.667z"/>
    <path style="fill:#7C3F3E; stroke:none;" d="M168.667 333.333C168.222 333.778 169.278 333.722 169.333 333.667C169.778 333.222 168.722 333.278 168.667 333.333z"/>
    <path style="fill:#F7EEE7; stroke:none;" d="M317 336L317 338L319 338L319 336L317 336M162 338L162 340L164 340L164 338L162 338M728.667 364.333C728.222 364.778 729.278 364.722 729.333 364.667C729.778 364.222 728.722 364.278 728.667 364.333M310 373L310 375L312 375L312 373L310 373M232.667 395.333C232.222 395.778 233.278 395.722 233.333 395.667C233.778 395.222 232.722 395.278 232.667 395.333M234.333 396.667C234.278 396.722 234.222 397.778 234.667 397.333C234.722 397.278 234.778 396.222 234.333 396.667M235 398L235 400L237 400L237 398L235 398M303 402L303 404L305 404L305 402L303 402M120 416L120 418L122 418L122 416L120 416M266 429L266 431L268 431L268 429L266 429M783.333 433.667C783.278 433.722 783.222 434.778 783.667 434.333C783.722 434.278 783.778 433.222 783.333 433.667M175.667 437.333C175.222 437.778 176.278 437.722 176.333 437.667C176.778 437.222 175.722 437.278 175.667 437.333M131 453L131 455L133 455L133 453L131 453M189 458L189 460L192 460L192 458L189 458M801 458L801 460L803 460L803 458L801 458z"/>
    <path style="fill:#7C3F3E; stroke:none;" d="M268 506L268 508L270 508L270 506L268 506z"/>
    <path style="fill:#F7EEE7; stroke:none;" d="M265.333 519.667C265.278 519.722 265.222 520.778 265.667 520.333C265.722 520.278 265.778 519.222 265.333 519.667z"/>
    <path style="fill:#7C3F3E; stroke:none;" d="M839 519L839 521L841 521L841 519L839 519z"/>
    <path style="fill:#F7EEE7; stroke:none;" d="M191 524L191 526L193 526L193 524L191 524M115 533L115 535L117 535L117 533L115 533M850 537L850 539L852 539L852 537L850 537M852.667 541.333C852.222 541.778 853.278 541.722 853.333 541.667C853.778 541.222 852.722 541.278 852.667 541.333z"/>
    <path style="fill:#7C3F3E; stroke:none;" d="M120 544L120 546L122 546L122 544L120 544M854 544L854 546L856 546L856 544L854 544M124 550L124 552L126 552L126 550L124 550z"/>
    <path style="fill:#F7EEE7; stroke:none;" d="M137 550L137 552L139 552L139 550L137 550M785 553.424C778.31 554.303 771.656 553.917 765 555.286C742.544 559.903 721.457 569.238 699.911 576.469C685.875 581.18 671.194 584.736 656.83 588.559C650.791 590.167 644.964 589.405 639.039 590.493C630.361 592.086 621.633 594.993 612.911 596.755C593.092 600.76 573.019 600.717 553 602.089C545.635 602.594 538.371 604.406 531 604.911C523.063 605.454 514.954 605 507 605C477.179 605 447.487 603.821 418.91 613.023C405.118 617.464 389.995 623.7 380.409 635.468C377.544 638.984 375.656 643.697 374.375 648C368.485 667.781 378.82 681.319 392.79 694.269C396.451 697.663 399.834 701.806 404.039 704.531C407.506 706.777 411.497 708.094 415 710.342C421.156 714.292 427.168 718.613 434 721.36C443.471 725.168 452.43 730.692 461.514 735.147C466.094 737.394 472.112 738.022 476.999 739.799C484.135 742.395 490.607 745.979 498 748.127C511.866 752.156 525.893 753.093 539.911 756.22C576.193 764.314 612.871 766.665 650 765.039C664.087 764.422 678.066 763.95 691.985 761.557C709.397 758.564 726.475 752.208 743 746.015C748.628 743.905 754.411 743.222 759.83 740.409C768.307 736.009 775.913 729.582 783.246 723.545C797.211 712.048 810.719 699.022 820.792 683.83C823.207 680.189 824.447 676.047 826.608 672.289C829.059 668.027 832.323 664.539 834.368 659.999C841.696 643.731 843 628.62 843 611C843 600.029 842.793 589.306 838.415 579.089C835.381 572.008 833.091 563.215 826.557 558.479C822.684 555.672 818.52 555.466 814 554.679C804.455 553.018 794.723 552.148 785 553.424z"/>
    <path style="fill:#A46160; stroke:none;" d="M798 585C801.243 583.538 802.758 580.06 806 583C806.562 581.199 806.824 579.878 807 578C802.405 578.71 799.969 580.828 798 585z"/>
    <path style="fill:#7C3F3E; stroke:none;" d="M793 600C798.456 594.457 804.275 588.004 805 580C800.59 582.243 801.373 585.085 799.174 589C796.895 593.057 793.742 595.193 793 600M794 589C795.753 587.67 796.67 586.753 798 585C795.751 586.154 795.154 586.751 794 589z"/>
    <!--    eye-->
    <path style="fill:#010101; stroke:none;" d="M703 633L703 662C707.434 661.4 711.758 659.132 715.714 657.059C717.905 655.911 720.285 654.124 722.874 655.216C726.898 656.914 728.881 663.668 731.769 666.826C738.807 674.524 748.953 676.834 759 675.896C777.875 674.134 792.879 654.871 788.54 636C787.56 631.739 785.411 627.643 782.999 624.039C781.465 621.746 778.756 619.01 779.269 616C779.918 612.197 784.681 608.598 787.18 605.91C792.196 600.515 799.532 592.275 801 585C795.629 586.517 792.324 591.21 787.996 594.572C782.101 599.151 775.318 603.024 769.039 607.084C759.93 612.975 749.969 617.135 739.999 621.181C727.981 626.058 715.979 631.251 703 633z"/>
    <path style="fill:#A46160; stroke:none;" d="M792 588L792 590L794 590L794 588L792 588z"/>
    <path style="fill:#7C3F3E; stroke:none;" d="M780 600C785.191 597.731 789.312 594.098 794 591C789.51 589.98 782.325 596.348 780 600z"/>
    <path style="fill:#A46160; stroke:none;" d="M787 594L790 593C788.222 592.045 787.979 592.234 787 594M795 598C796.753 596.67 797.67 595.753 799 594C796.751 595.154 796.154 595.751 795 598M776 602L784 597C780.147 595.958 777.728 598.775 776 602M789 605C791.136 603.451 792.451 602.136 794 600C791.313 601.324 790.324 602.313 789 605z"/>
    <path style="fill:#7C3F3E; stroke:none;" d="M762 611C767.165 609.647 771.683 606.066 776 603C771.773 602.343 764.282 607.516 762 611z"/>
    <path style="fill:#A46160; stroke:none;" d="M770.667 604.333C770.223 604.777 771.278 604.722 771.333 604.667C771.778 604.222 770.722 604.278 770.667 604.333z"/>
    <path style="fill:#7C3F3E; stroke:none;" d="M788 604C786.651 605.768 785.878 606.983 785 609C787.015 607.356 788.098 606.587 788 604M783 609L783 611C784.635 610.455 784.455 610.635 785 609L783 609z"/>
    <path style="fill:#A46160; stroke:none;" d="M759 610C760.248 610.685 760.548 610.749 762 611C760.752 610.315 760.452 610.251 759 610z"/>
    <path style="fill:#7C3F3E; stroke:none;" d="M755 613C757.37 613.589 758.707 612.955 761 612C758.63 611.411 757.293 612.045 755 613z"/>
    <path style="fill:#A46160; stroke:none;" d="M782 611L782 613C783.635 612.455 783.455 612.635 784 611L782 611z"/>
    <path style="fill:#7C3F3E; stroke:none;" d="M780 612L780 614C781.635 613.455 781.455 613.635 782 612L780 612M736 622C741.53 622.829 751.367 618.138 755 614C748.187 615.429 742.013 618.563 736 622z"/>
    <path style="fill:#A46160; stroke:none;" d="M779 614L779 618C779.911 616.624 780.404 615.56 781 614L779 614z"/>
    <path style="fill:#7C3F3E; stroke:none;" d="M778 615L778 618C778.696 616.446 778.696 616.554 778 615M779.333 618.667C779.278 618.722 779.222 619.778 779.667 619.333C779.722 619.278 779.778 618.222 779.333 618.667z"/>
    <path style="fill:#A46160; stroke:none;" d="M780.667 619.333C780.223 619.777 781.278 619.722 781.333 619.667C781.778 619.222 780.722 619.278 780.667 619.333z"/>
    <path style="fill:#7C3F3E; stroke:none;" d="M781 620C782.409 625.226 785.874 629.95 788 635C789.87 630.008 785.258 624.405 783 620L781 620z"/>
    <path style="fill:#A46160; stroke:none;" d="M733 622C734.943 622.622 735.949 622.436 738 622C736.057 621.378 735.051 621.564 733 622M722 626C725.509 627.035 728.676 625.28 732 624C728.635 623.183 725.339 625.168 722 626z"/>
    <path style="fill:#7C3F3E; stroke:none;" d="M730 624C731.943 624.622 732.949 624.436 735 624C733.057 623.378 732.051 623.564 730 624M728.667 625.333C728.223 625.777 729.278 625.722 729.333 625.667C729.778 625.222 728.722 625.278 728.667 625.333z"/>
    <path style="fill:#A46160; stroke:none;" d="M786 625C786.651 627.434 787.16 628.283 789 630C788.349 627.566 787.84 626.717 786 625z"/>
    <path style="fill:#7C3F3E; stroke:none;" d="M704 632C709.933 633.802 721.337 629.405 727 627C720.358 625.484 710.571 630.282 704 632z"/>
    <path style="fill:#A46160; stroke:none;" d="M718 627C719.248 627.685 719.548 627.749 721 628C719.752 627.315 719.452 627.251 718 627M713 628C714.769 628.779 716.036 628.912 718 629C716.231 628.221 714.964 628.088 713 628M708 630C709.943 630.622 710.949 630.436 713 630C711.057 629.378 710.051 629.564 708 630z"/>
    <path style="fill:#F7EEE7; stroke:none;" d="M890 632L890 634L892 634L892 632L890 632z"/>
    <path style="fill:#7C3F3E; stroke:none;" d="M702 634L702 661C704.541 654.945 704.541 640.055 702 634z"/>
    <path style="fill:#A46160; stroke:none;" d="M701 635L701 661C703.477 655.097 703.477 640.903 701 635z"/>
    <path style="fill:#7C3F3E; stroke:none;" d="M789 637C789 641.367 789.257 645.777 787.945 650C786.405 654.956 783.355 658.695 783 664C787.499 656.567 792.648 645.693 789 637z"/>
    <path style="fill:#A46160; stroke:none;" d="M790 637L790 646C791.256 643.006 791.256 639.994 790 637z"/>
    <path style="fill:#F7EEE7; stroke:none;" d="M234.333 641.667C234.278 641.722 234.222 642.778 234.667 642.333C234.722 642.278 234.778 641.222 234.333 641.667z"/>
    <path style="fill:#A46160; stroke:none;" d="M593 641C594.769 641.779 596.036 641.912 598 642C596.231 641.221 594.964 641.088 593 641z"/>
    <path style="fill:#7C3F3E; stroke:none;" d="M483 648C484.644 652.402 487.571 653.877 492 655L486 650C496.377 650.848 506.511 653.501 517 653.961C535.27 654.761 553.003 652.359 571 649.701C579.33 648.47 593.797 640.577 600 648C600.648 644.825 598.487 642.337 594.995 642.411C589.262 642.533 581.802 645.984 576 647.211C557.4 651.142 537.078 654.281 518.015 652.946C506.41 652.134 494.707 648.932 483 648z"/>
    <path style="fill:#A46160; stroke:none;" d="M589 643C590.248 643.685 590.548 643.749 592 644C590.752 643.315 590.452 643.251 589 643M586 644C587.248 644.685 587.548 644.749 589 645C587.752 644.315 587.451 644.251 586 644z"/>
<!--    Eye-->
    <path style="fill:#010101; stroke:none;" d="M486 650C492.054 657.062 504.415 659.351 513 662.304C515.827 663.276 521.275 663.35 523.268 665.742C524.742 667.511 523.542 670.029 523.255 672.001C522.732 675.59 522.885 679.464 523.68 683C527.704 700.906 541.698 712.407 560 710.907C574.234 709.74 585.167 700.4 589.325 687C590.624 682.814 589.581 674.728 592.603 671.589C595.486 668.594 601.239 669.166 604.995 668.981C606.812 668.892 609.545 668.897 610.173 666.721C610.756 664.701 608.98 662.492 608.101 660.83C605.516 655.942 602.903 647.857 597.816 645.032C594.402 643.136 590.391 644.996 587 645.961C580.985 647.673 574.223 649.316 568 649.924C551.127 651.575 535.11 654.71 518 653.961C507.225 653.489 496.676 650.465 486 650z"/>
    <path style="fill:#A46160; stroke:none;" d="M577 646C579.905 646.894 582.948 646.13 586 646C582.895 644.699 580.192 645.058 577 646M601 645C601.412 648.051 602.532 650.302 604 653C604.465 649.884 602.848 647.496 601 645z"/>
    <path style="fill:#F7EEE7; stroke:none;" d="M894 645L894 647L896 647L896 645L894 645z"/>
    <path style="fill:#A46160; stroke:none;" d="M480 647C480.939 649.637 481.58 650.618 484 652L483 648L489 649C486.196 646.875 483.467 647.011 480 647M566 648C569.001 649.172 571.841 648.398 575 648C571.895 646.699 569.192 647.058 566 648M492 649C495.412 650.532 499.27 650.84 503 651C499.523 649.152 495.892 649.032 492 649M560 649C561.248 649.685 561.548 649.749 563 650C561.752 649.315 561.451 649.251 560 649z"/>
    <path style="fill:#7C3F3E; stroke:none;" d="M602.333 649.667C602.278 649.722 602.222 650.778 602.667 650.333C602.722 650.278 602.778 649.222 602.333 649.667z"/>
    <path style="fill:#A46160; stroke:none;" d="M789 649L789 652C789.696 650.446 789.696 650.554 789 649M552 650C553.769 650.779 555.036 650.912 557 651C555.231 650.221 553.964 650.088 552 650M543 651C545.89 652.213 548.874 651.998 552 652C549.11 650.787 546.126 651.002 543 651M484.667 652.333C484.222 652.778 485.278 652.722 485.333 652.667C485.778 652.222 484.722 652.278 484.667 652.333M513 652C519.202 654.603 528.298 653 535 653C528.798 650.397 519.702 652 513 652M788.333 652.667C788.278 652.722 788.222 653.778 788.667 653.333C788.722 653.278 788.778 652.222 788.333 652.667z"/>
    <path style="fill:#7C3F3E; stroke:none;" d="M604 653C605.324 656.643 606.835 660.682 610 663C609.167 658.696 607.366 655.792 604 653z"/>
    <path style="fill:#F7EEE7; stroke:none;" d="M232 654L232 656L234 656L234 654L232 654z"/>
    <path style="fill:#A46160; stroke:none;" d="M488.667 654.333C488.222 654.778 489.278 654.722 489.333 654.667C489.778 654.222 488.722 654.278 488.667 654.333z"/>
    <path style="fill:#7C3F3E; stroke:none;" d="M715 657C717.829 657.786 720.985 656.195 724 656C725.529 666.063 734.865 672.552 744 675C740.641 672.273 736.565 670.803 733.429 667.696C726.854 661.182 725.62 650.916 715 657z"/>
    <path style="fill:#A46160; stroke:none;" d="M491 655C492.543 656.267 493.048 656.489 495 657C493.457 655.733 492.952 655.511 491 655M787.333 655.667C787.277 655.722 787.222 656.778 787.667 656.333C787.722 656.278 787.778 655.222 787.333 655.667z"/>
    <path style="fill:#7C3F3E; stroke:none;" d="M495 656C496.248 656.685 496.548 656.749 498 657C496.752 656.315 496.452 656.251 495 656z"/>
    <path style="fill:#A46160; stroke:none;" d="M718 656C720.223 657.213 721.648 657.839 723 660C723.683 658.494 723.826 657.685 724 656L718 656z"/>
    <path style="fill:#7C3F3E; stroke:none;" d="M498 657C502.983 661.499 510.405 663.461 517 664C511.45 660.491 504.319 658.689 498 657z"/>
    <path style="fill:#A46160; stroke:none;" d="M786 657L784 662C785.848 660.22 786.566 659.509 786 657z"/>
    <path style="fill:#7C3F3E; stroke:none;" d="M707 662C709.489 661.223 711.672 660.183 714 659C710.974 658.469 708.805 659.548 707 662z"/>
    <path style="fill:#A46160; stroke:none;" d="M714.667 658.333C714.222 658.778 715.278 658.722 715.333 658.667C715.778 658.222 714.722 658.278 714.667 658.333M499 659C500.248 659.685 500.548 659.749 502 660C500.752 659.315 500.452 659.251 499 659M711 661C712.58 660.317 712.777 660.195 714 659C712.42 659.684 712.223 659.805 711 661z"/>
    <path style="fill:#F7EEE7; stroke:none;" d="M897 659L897 661L899 661L899 659L897 659z"/>
    <path style="fill:#A46160; stroke:none;" d="M726.333 661.667C726.278 661.722 726.222 662.778 726.667 662.333C726.722 662.278 726.778 661.222 726.333 661.667z"/>
    <path style="fill:#7C3F3E; stroke:none;" d="M703 662C704.248 662.685 704.548 662.749 706 663C704.752 662.315 704.452 662.251 703 662z"/>
    <path style="fill:#A46160; stroke:none;" d="M706.667 662.333C706.223 662.777 707.278 662.722 707.333 662.667C707.778 662.222 706.722 662.278 706.667 662.333z"/>
    <path style="fill:#7C3F3E; stroke:none;" d="M610 663L611 668C611.791 665.693 611.475 664.935 610 663z"/>
    <path style="fill:#A46160; stroke:none;" d="M727.333 663.667C727.278 663.722 727.222 664.778 727.667 664.333C727.722 664.278 727.778 663.222 727.333 663.667z"/>
    <path style="fill:#7C3F3E; stroke:none;" d="M517 664C524.306 667.917 522 674.502 522 682C523.452 678.541 522.847 674.675 523.705 671.004C524.093 669.346 525.024 667.335 523.918 665.742C522.512 663.717 519.118 664.051 517 664M780 667C781.457 665.896 781.897 665.457 783 664C780.876 664.899 780.899 664.876 780 667z"/>
    <path style="fill:#A46160; stroke:none;" d="M517 665C518.769 665.779 520.036 665.912 522 666C520.231 665.221 518.964 665.088 517 665M612 665C611.316 666.58 611.195 666.777 610 668C612.577 668.976 612.952 667.139 612 665M728.333 665.667C728.278 665.722 728.222 666.778 728.667 666.333C728.722 666.278 728.778 665.222 728.333 665.667M522 666L522 670C522.71 668.24 522.71 667.76 522 666M729 667C730.223 668.195 730.42 668.316 732 669C730.777 667.805 730.58 667.684 729 667z"/>
    <path style="fill:#7C3F3E; stroke:none;" d="M747 676C757.943 680.592 769.804 674.578 779 669C774.481 668.261 770.201 672.289 766 673.816C759.663 676.119 753.646 676 747 676M591 682C592.129 679.31 591.394 675.763 593.028 673.318C595.52 669.587 605.864 670.178 610 670C606 668.322 595.051 667.623 592.028 671.589C590.111 674.103 591 679.024 591 682z"/>
    <path style="fill:#A46160; stroke:none;" d="M738 673C740.706 675.84 743.104 676.739 747 677C744.338 674.789 741.337 673.895 738 673M769 675C770.58 674.317 770.777 674.195 772 673C770.42 673.684 770.223 673.805 769 675M750 677C753.698 678.552 758.017 678 762 678C758.303 676.448 753.983 677 750 677z"/>
    <path style="fill:#7C3F3E; stroke:none;" d="M523 682C523.211 689.301 526.08 695.627 532 700C529.507 694.1 526.142 687.599 523 682M590 682L588 693C590.04 689.558 591.555 685.848 590 682z"/>
    <path style="fill:#F7EEE7; stroke:none;" d="M228 687L228 689L230 689L230 687L228 687z"/>
    <path style="fill:#A46160; stroke:none;" d="M524.333 689.667C524.278 689.722 524.222 690.778 524.667 690.333C524.722 690.278 524.778 689.222 524.333 689.667M587 693C583.538 698.447 577.97 702.436 575 708C581.311 704.352 585.584 699.384 589 693L587 693M526.333 694.667C526.278 694.722 526.222 695.778 526.667 695.333C526.722 695.278 526.778 694.222 526.333 694.667z"/>
    <path style="fill:#7C3F3E; stroke:none;" d="M583 697L583 699C584.635 698.455 584.455 698.635 585 697L583 697z"/>
    <path style="fill:#A46160; stroke:none;" d="M530 699C530.684 700.58 530.805 700.777 532 702C531.316 700.42 531.195 700.223 530 699z"/>
    <path style="fill:#7C3F3E; stroke:none;" d="M532.667 701.333C532.222 701.778 533.278 701.722 533.333 701.667C533.778 701.222 532.722 701.278 532.667 701.333z"/>
    <path style="fill:#A46160; stroke:none;" d="M533 702C534.154 704.249 534.751 704.846 537 706C535.67 704.247 534.753 703.33 533 702M537 706C541.35 713.092 552.515 712.979 560 713C555.959 711.288 551.263 711.715 547 710.6C543.427 709.665 540.376 707.416 537 706z"/>
    <path style="fill:#7C3F3E; stroke:none;" d="M539.667 707.333C539.222 707.778 540.278 707.722 540.333 707.667C540.778 707.222 539.722 707.278 539.667 707.333M572 707C573.248 707.685 573.548 707.749 575 708C573.752 707.315 573.452 707.251 572 707M552 711C557.184 713.175 567.231 712.502 571 708C564.377 709.14 558.865 710.999 552 711z"/>
    <path style="fill:#A46160; stroke:none;" d="M571 708L571 710C572.635 709.455 572.455 709.635 573 708L571 708z"/>
    <path style="fill:#7C3F3E; stroke:none;" d="M543 709C544.458 710.081 545.248 710.436 547 711C545.457 709.733 544.952 709.511 543 709z"/>
    <path style="fill:#A46160; stroke:none;" d="M564 711C566.164 711.676 567.732 711.387 570 711C567.761 710.189 566.353 710.471 564 711z"/>
    <path style="fill:#F7EEE7; stroke:none;" d="M228 750L228 752L230 752L230 750L228 750z"/>
    <path style="fill:#7C3F3E; stroke:none;" d="M661 912L658 912C657.609 920.566 654.786 928.937 652.549 937.089C649.475 948.297 647.712 961.377 639 970C639.598 971.195 639.466 970.977 641 972C638.125 975.278 637.818 978.75 636.311 982.711C634.497 987.478 632.301 992.045 630.584 996.87C627.6 1005.25 622.883 1012.68 618.964 1020.61C616.547 1025.51 613.45 1032.11 615.514 1037.66C616.769 1041.03 620.668 1041.64 623.561 1043.02C628.162 1045.21 631.97 1048.74 636.615 1051.04C645.685 1055.51 654.829 1060.01 663.487 1065.22C675.63 1072.53 687.541 1080 702 1080C707.015 1066.48 713.951 1053.49 718.598 1039.73C727.188 1014.29 732.572 987.406 737.259 961.089C738.766 952.63 742.819 944.362 744 936L739 936C739.031 926.965 742.286 918.115 742.911 909C744.649 883.62 744.636 858.371 744.015 833C743.668 818.835 744.219 805.051 741.92 791C740.409 781.768 741.056 772.309 740.17 763C739.886 760.017 740.958 755.104 738.972 752.603C736.085 748.967 728.367 752.335 725 753.532C713.066 757.774 700.492 761.288 688 763.536C683.868 764.279 675.85 762.315 673.179 766.318C670.871 769.776 672 776.048 672 780L672 812C672 817.661 670.446 822.562 670.054 828.039C668.785 845.795 668 863.428 665.711 881C664.37 891.295 661.3 901.624 661 912z"/>
    <path style="fill:#A46160; stroke:none;" d="M697 759L697 761C701.194 760.911 704.937 759.929 709 759C705.197 757.449 701.031 758.827 697 759z"/>
    <path style="fill:#F7EEE7; stroke:none;" d="M239.667 811.333C239.222 811.778 240.278 811.722 240.333 811.667C240.778 811.222 239.722 811.278 239.667 811.333M868 842L868 844L870 844L870 842L868 842M261.667 864.333C261.222 864.778 262.278 864.722 262.333 864.667C262.778 864.222 261.722 864.278 261.667 864.333M266 873L266 875L268 875L268 873L266 873M270 878L270 880L272 880L272 878L270 878z"/>
    <path style="fill:#7C3F3E; stroke:none;" d="M804 904L804 906L806 906L806 904L804 904M338.333 940.667C338.278 940.722 338.222 941.778 338.667 941.333C338.722 941.278 338.778 940.222 338.333 940.667z"/>
    <path style="fill:#F7EEE7; stroke:none;" d="M409 969L409 971L411 971L411 969L409 969M454.667 979.333C454.222 979.778 455.278 979.722 455.333 979.667C455.778 979.222 454.722 979.278 454.667 979.333M487 982L487 984L489 984L489 982L487 982M583 982L583 984L586 984L586 982L583 982z"/>
</svg>
