<svg width="40" height="40" viewBox="0 0 40 40" fill="none" xmlns="http://www.w3.org/2000/svg">
<rect width="40" height="40" fill="#1E1E1E"/>
<path d="M-1183 -537C-1183 -538.104 -1182.1 -539 -1181 -539H4023C4024.1 -539 4025 -538.105 4025 -537V9604C4025 9605.1 4024.1 9606 4023 9606H-1181C-1182.1 9606 -1183 9605.1 -1183 9604V-537Z" fill="#444444"/>
<path d="M-1181 -538H4023V-540H-1181V-538ZM4024 -537V9604H4026V-537H4024ZM4023 9605H-1181V9607H4023V9605ZM-1182 9604V-537H-1184V9604H-1182ZM-1181 9605C-1181.55 9605 -1182 9604.55 -1182 9604H-1184C-1184 9605.66 -1182.66 9607 -1181 9607V9605ZM4024 9604C4024 9604.55 4023.55 9605 4023 9605V9607C4024.66 9607 4026 9605.66 4026 9604H4024ZM4023 -538C4023.55 -538 4024 -537.552 4024 -537H4026C4026 -538.657 4024.66 -540 4023 -540V-538ZM-1181 -540C-1182.66 -540 -1184 -538.656 -1184 -537H-1182C-1182 -537.552 -1181.55 -538 -1181 -538V-540Z" fill="white" fill-opacity="0.1"/>
<g clip-path="url(#clip0_175_927)">
<rect width="412" height="917" transform="translate(-43 -371)" fill="#F7EEE7"/>
<rect x="-20" y="-11" width="80" height="80" rx="5" fill="#FFFCFB"/>
<g clip-path="url(#clip1_175_927)">
<path d="M13.6484 3.52344C15.0156 1.32812 17.4219 0 20 0C22.5781 0 24.9844 1.32812 26.3516 3.52344L29.3672 8.34375L31.4766 7.125C32.1328 6.74219 32.9531 6.79687 33.5547 7.25781C34.1562 7.71875 34.4219 8.5 34.2266 9.23437L32.3984 16.0625C32.1328 17.0625 31.1016 17.6562 30.1016 17.3906L23.2734 15.5625C22.5391 15.3672 22 14.75 21.8984 14C21.7969 13.25 22.1641 12.5078 22.8203 12.1328L25.0391 10.8516L22.1094 6.17187C21.6562 5.44531 20.8594 5 20 5C19.1406 5 18.3438 5.44531 17.8906 6.17187L16.5234 8.35937C15.8047 9.51562 14.2891 9.88281 13.1172 9.17969C11.9219 8.46094 11.5391 6.89844 12.2812 5.71094L13.6484 3.52344ZM33.5547 19.6797C34.7266 18.9766 36.2422 19.3437 36.9609 20.5L38.8672 23.5547C39.6016 24.7344 39.9922 26.0859 40.0078 27.4766C40.0312 31.625 36.6719 35.0078 32.5234 35.0078L25 35V37.5C25 38.2578 24.5469 38.9453 23.8438 39.2344C23.1406 39.5234 22.3359 39.3672 21.7969 38.8281L16.7969 33.8281C16.0625 33.0937 16.0625 31.9062 16.7969 31.1797L21.7969 26.1797C22.3359 25.6406 23.1406 25.4844 23.8438 25.7734C24.5469 26.0625 25 26.75 25 27.5078V30.0078H32.5156C33.8906 30.0078 35.0078 28.8828 35 27.5078C35 27.0469 34.8672 26.5937 34.625 26.2031L32.7188 23.1484C31.9766 21.9609 32.3516 20.3984 33.5547 19.6797ZM5.07031 17.2578L2.8125 15.9531C2.15625 15.5703 1.78906 14.8359 1.89062 14.0859C1.99219 13.3359 2.53125 12.7187 3.26562 12.5234L10.0937 10.6953C11.0937 10.4297 12.125 11.0234 12.3906 12.0234L14.2188 18.8437C14.4141 19.5781 14.1484 20.3516 13.5469 20.8203C12.9453 21.2891 12.125 21.3359 11.4688 20.9531L9.39844 19.7578L5.375 26.1953C5.13281 26.5859 5 27.0391 5 27.5C4.99219 28.875 6.10938 30 7.48438 30H10C11.3828 30 12.5 31.1172 12.5 32.5C12.5 33.8828 11.3828 35 10 35H7.48438C3.33594 35 -0.0234377 31.625 -1.73874e-07 27.4687C0.00781233 26.0781 0.398437 24.7266 1.14062 23.5469L5.07031 17.2578Z" fill="#5E926F"/>
</g>
</g>
<defs>
<clipPath id="clip0_175_927">
<rect width="412" height="917" fill="white" transform="translate(-43 -371)"/>
</clipPath>
<clipPath id="clip1_175_927">
<rect width="40" height="40" fill="white"/>
</clipPath>
</defs>
</svg>
