<svg width="20" height="24" viewBox="0 0 20 24" fill="none" xmlns="http://www.w3.org/2000/svg">
    <path d="M19.833 10.9963C19.833 9.73467 19.3292 8.59209 18.5139 7.75411C18.5434 7.53436 18.5643 7.31175 18.5643 7.08375C18.5643 4.54542 16.66 2.45597 14.2025 2.15531C12.9676 0.832219 11.2129 0 9.25966 0C5.52232 0 2.49312 3.02925 2.49312 6.76692C2.49312 6.7867 2.49602 6.80541 2.49602 6.82486C1.09095 7.77502 0.166992 9.3833 0.166992 11.2074C0.166992 13.708 1.90512 15.7982 4.23771 16.348C4.71063 17.5054 5.84637 18.3218 7.17377 18.3218C7.66863 18.3218 8.13509 18.2052 8.55223 18.0031V24H12.1864V20.0631L13.6037 17.6416C15.0544 17.5359 16.2801 16.6214 16.826 15.3432C18.5822 14.6779 19.833 12.9854 19.833 10.9963ZM10.2163 16.042C10.2473 16.0855 10.2793 16.1276 10.312 16.1697L10.1512 16.2351C10.1746 16.1711 10.1973 16.1074 10.2163 16.042ZM11.3535 19.0032V17.1011C11.6901 17.3057 12.0602 17.4593 12.4547 17.5521L11.3535 19.0032Z" fill="#D9D9D9"/>
</svg>
